<?xml version="1.0" encoding="iso-8859-1"?>
<!-- Generator: Adobe Illustrator 19.0.0, SVG Export Plug-In . SVG Version: 6.00 Build 0)  -->
<svg version="1.1" id="Layer_1" xmlns="http://www.w3.org/2000/svg" xmlns:xlink="http://www.w3.org/1999/xlink" x="0px" y="0px"
	 viewBox="0 0 512 512" style="enable-background:new 0 0 512 512;" xml:space="preserve">
<g>
	<g>
		<path d="M508.044,211.557c-11.871-67.324-49.248-125.995-105.248-165.206C346.797,7.14,278.88-7.916,211.557,3.955
			C144.234,15.826,85.563,53.204,46.352,109.202C7.14,165.201-7.916,233.119,3.955,300.442
			c11.871,67.324,49.248,125.995,105.248,165.206C152.716,496.117,203.422,512,255.457,512c14.931,0,29.976-1.309,44.985-3.956
			c67.324-11.871,125.995-49.248,165.206-105.248C504.859,346.796,519.916,278.881,508.044,211.557z M20.286,297.562
			c-11.102-62.961,2.979-126.478,39.649-178.848c36.671-52.37,91.541-87.326,154.501-98.428c14.043-2.476,28.104-3.699,42.071-3.699
			c48.659,0,96.087,14.856,136.777,43.348c9.211,6.45,17.872,13.474,25.971,20.996l-13.323,13.323
			c-17.274-16.047-36.789-29.112-58.128-38.881c-4.165-1.908-9.084-0.076-10.99,4.088c-1.906,4.163-0.075,9.084,4.088,10.99
			c19.539,8.945,37.431,20.884,53.298,35.534l-63.429,63.429c-8.725-7.562-18.446-13.735-29.029-18.352
			c-4.197-1.83-9.084,0.087-10.916,4.284c-1.831,4.198,0.087,9.084,4.284,10.916c8.675,3.784,16.681,8.791,23.908,14.903
			l-19.642,19.643c-12.33-9.748-27.465-15.054-43.423-15.054c-18.751,0-36.381,7.302-49.64,20.562
			c-13.26,13.259-20.562,30.888-20.562,49.64c0,15.958,5.305,31.093,15.054,43.423l-19.632,19.632
			c-32.423-38.4-30.575-96.065,5.596-132.238c20.387-20.387,48.574-30.71,77.339-28.318c4.56,0.381,8.57-3.013,8.949-7.576
			s-3.013-8.57-7.576-8.949c-33.628-2.797-66.595,9.275-90.438,33.119c-42.642,42.642-44.521,110.841-5.649,155.741l-63.408,63.408
			c-34.882-37.767-54.005-86.53-54.005-138.239c0-54.483,21.216-105.705,59.742-144.229c25.538-25.538,57.387-43.867,92.106-53.005
			c33.706-8.873,69.366-8.975,103.127-0.292c4.437,1.14,8.955-1.531,10.095-5.965c1.14-4.434-1.53-8.955-5.965-10.095
			c-36.494-9.385-75.043-9.275-111.478,0.315c-37.555,9.886-71.999,29.706-99.61,57.317c-41.658,41.657-64.6,97.043-64.6,155.956
			c0,56.139,20.847,109.067,58.857,149.974l-13.35,13.35C49.518,385.755,28.449,343.851,20.286,297.562z M283.266,253.712
			l-10.003-3.334l38.873-38.873l2.022,2.279c1.736,1.956,4.285,2.975,6.897,2.759l26.207-2.207c0.127-0.011,0.239,0.074,0.263,0.199
			l1.139,5.691c0.5,2.496-0.071,4.99-1.606,7.021c-1.534,2.031-3.778,3.26-6.316,3.461l-43.135,3.416
			c-4.859,0.385-9.22,2.915-11.967,6.942C283.093,244.798,282.251,249.352,283.266,253.712z M212.633,287.555
			c-6.681-9.12-10.295-20.08-10.295-31.598c0-14.322,5.577-27.787,15.705-37.913c10.128-10.127,23.592-15.705,37.913-15.705
			c11.519,0,22.479,3.614,31.598,10.295L212.633,287.555z M255.492,495.415c-48.66-0.003-96.088-14.858-136.778-43.35
			c-9.246-6.474-17.935-13.525-26.06-21.078l38.149-38.149l8.964,8.654c5.58,5.387,12.908,8.723,20.637,9.389l81.278,7.017
			l-0.543,4.343c-1.132,9.053,2.714,18.06,10.036,23.506l15.05,11.191l-1.313,4.232c-3.024,9.743,0.054,20.298,7.761,26.817
			l7.115,6.182C271.673,494.992,263.567,495.415,255.492,495.415z M352.892,474.952c-16.324,7.188-33.564,12.58-51.484,16.035
			l-17.945-15.59c-2.698-2.282-3.763-5.938-2.716-9.312l3.053-9.839c1.043-3.36-0.148-7.012-2.972-9.112l-19.761-14.695
			c-2.536-1.886-3.868-5.006-3.477-8.142l1.611-12.891c0.28-2.237-0.364-4.491-1.781-6.243s-3.488-2.852-5.733-3.046l-89.86-7.758
			c-3.949-0.342-7.693-2.045-10.546-4.798l-8.755-8.453l117.622-117.622l18.863,6.287c1.673,0.558,3.388,0.829,5.089,0.829
			c4.099,0,8.101-1.581,11.147-4.544c4.144-4.031,5.778-9.897,4.349-15.456l42.45-3.363c7.222-0.572,13.869-4.214,18.237-9.994
			c4.368-5.78,6.058-13.169,4.638-20.272l-1.139-5.69c-1.679-8.399-9.386-14.19-17.916-13.472l-21.884,1.843L431.006,92.63
			c31.436,33.54,52.535,75.477,60.704,121.807c0.382,2.148,0.725,4.298,1.046,6.447l-6.682-6.557
			c-5.498-5.395-13.043-7.984-20.692-7.094c-7.651,0.888-14.402,5.131-18.52,11.641l-2.281,3.606
			c-4.705-0.341-9.491,1.289-13.043,4.79l-1.033,1.018l-14.502-17.174c-2.955-3.499-8.185-3.939-11.684-0.986
			c-3.499,2.955-3.94,8.186-0.986,11.684l20.281,24.017c1.49,1.764,3.649,2.828,5.957,2.933c2.293,0.101,4.554-0.757,6.199-2.378
			l7.41-7.304c0.086-0.085,0.217-0.095,0.316-0.026l10.142,7.033c0.101,0.07,0.136,0.206,0.08,0.315l-31.047,61.635l-2.64,0.196
			c-2.846,0.212-5.63-0.982-7.442-3.189l-39.92-48.652c-2.905-3.54-8.13-4.055-11.669-1.151c-3.54,2.904-4.055,8.129-1.151,11.669
			l39.919,48.652c5.23,6.375,13.268,9.824,21.488,9.209l15.926-1.18l-40.872,94.517c-2.953,6.827-6.87,13.181-11.645,18.886
			L352.892,474.952z M452.064,393.285c-16.139,23.047-35.804,42.718-58.13,58.471l3.448-4.119
			c5.802-6.932,10.562-14.652,14.15-22.948l46.308-107.088c1.152-2.663,0.828-5.733-0.853-8.097
			c-1.682-2.365-4.475-3.679-7.37-3.463l-7.658,0.567l26.568-52.745c3.753-7.448,1.414-16.648-5.439-21.402l-3.613-2.505
			l1.403-2.218c1.426-2.255,3.764-3.725,6.414-4.032c2.652-0.308,5.262,0.588,7.167,2.457l20.727,20.339
			C497.364,298.648,482.508,349.808,452.064,393.285z"/>
	</g>
</g>
<g>
</g>
<g>
</g>
<g>
</g>
<g>
</g>
<g>
</g>
<g>
</g>
<g>
</g>
<g>
</g>
<g>
</g>
<g>
</g>
<g>
</g>
<g>
</g>
<g>
</g>
<g>
</g>
<g>
</g>
</svg>
