<?xml version="1.0" encoding="utf-8"?>
<!-- Generator: Adobe Illustrator 23.0.5, SVG Export Plug-In . SVG Version: 6.00 Build 0)  -->
<svg version="1.1" id="Layer_1" xmlns="http://www.w3.org/2000/svg" xmlns:xlink="http://www.w3.org/1999/xlink" x="0px" y="0px"
	 viewBox="0 0 802.6 798.3" style="enable-background:new 0 0 802.6 798.3;" xml:space="preserve">
<style type="text/css">
	.st0{fill:#15153A;}
	.st1{opacity:0.3;}
	.st2{clip-path:url(#SVGID_2_);}
	.st3{fill:#32326B;}
	.st4{fill:#F05E2A;}
	.st5{fill:#B63F26;}
	.st6{fill:#CC5744;}
	.st7{fill:#64CBFF;}
	.st8{fill:#3185AF;}
	.st9{fill:#897DF9;}
	.st10{fill:none;stroke:#FCFCFC;stroke-width:4;stroke-linecap:round;stroke-linejoin:round;stroke-miterlimit:10;}
	.st11{fill:#7C2E57;}
	.st12{fill:#602546;}
	.st13{fill:#3D6694;}
	.st14{fill:#2A3A66;}
	.st15{fill:#007BBD;}
	.st16{fill:#5BCBF5;}
	.st17{fill:#ECEAD6;}
	.st18{fill:#D6D5C4;}
	.st19{fill:#CCB6A4;}
	.st20{fill:#F5E000;}
	.st21{fill:#F0A529;}
	.st22{fill:#419AA3;}
	.st23{fill:#008C9B;}
	.st24{fill:#B7A697;}
	.st25{fill:#EEE6DB;}
	.st26{fill:#D1C6B8;}
	.st27{fill:#BC7A31;}
	.st28{fill:#D8D8D8;}
	.st29{fill:#939598;}
	.st30{fill:#FFFFFF;}
	.st31{fill:#9850A5;}
	.st32{fill:#A123B7;}
	.st33{fill:#B0B0B0;}
	.st34{opacity:0.5;fill:#0288BC;}
	.st35{fill:#F34644;}
	.st36{fill:#D8DEE2;}
	.st37{fill:#F4F2F2;}
	.st38{fill:#FBBF49;}
	.st39{fill:#9FA0CF;}
	.st40{opacity:0.5;}
</style>
<g>
	<g>
		<g>
			<rect x="2.6" class="st0" width="800" height="800"/>
			<g class="st1">
				<defs>
					<rect id="SVGID_1_" x="2.6" class="st1" width="800" height="800"/>
				</defs>
				<clipPath id="SVGID_2_">
					<use xlink:href="#SVGID_1_"  style="overflow:visible;"/>
				</clipPath>
				<g class="st2">
					<g>
						<path class="st3" d="M-6.1,350.7l-3.7,1.1c-23.4,7.1-45.4,13.8-64.5,13.7c-39.4-0.2-81.6-33.1-102.6-79.9L-284.6,334
							c18.4,40.8,46.3,76.5,80.7,103.1c39,30.1,83.6,46.2,128.9,46.5c36.9,0.2,70.1-9.9,99.4-18.8l3.7-1.1
							c99.5-30.1,197.9-53,292.3-68.1c33.6-5.3,68.8-10,98.1-3c28.6,6.8,56.9,25.7,86.9,45.8c31.5,21,64.1,42.8,103.7,56.4
							c29.5,10.1,61.1,15.1,96,15.1c12.5,0,25.3-0.6,38.6-1.9c40.5-3.9,79.7-12.9,119.7-22.7l-27.9-114.7
							c-74.4,18.1-135.5,30.6-188.2,12.5c-22.6-7.8-45.1-22-68.5-37.6c12.5,1.1,25,1.6,37.5,1.6c28.6,0,57-2.9,84.6-8.6
							c42.4-8.8,86.8-24.7,139.4-50.1c88.4-42.6,170.2-96,249.3-147.6l-64.5-98.8c-76,49.6-154.5,100.9-235.9,140.1
							c-43.8,21.1-79.4,34.1-112.2,40.9c-43.8,9.1-90.7,8.1-135.8-3c-45.1-11-87.2-31.8-121.8-60.1c-9.4-7.7-18.9-16.2-29-25.3
							c-42.1-37.8-94.5-84.9-166.9-86.3c-53.8-1-96.6,23.4-134.4,45c-11.5,6.6-22.3,12.7-32.8,17.8c-45,21.8-98.7,28-147.5,17.1
							c-24.4-5.5-44-16.7-47.7-27.2l-111.6,38.4c10.1,29.2,30.5,54.7,59.1,73.5c20.8,13.7,46.5,24.2,74.3,30.5
							c75.4,16.9,155.3,7.7,224.8-26c14-6.8,27.1-14.3,39.8-21.5c28.1-16.1,52.5-29.9,73.7-29.5c28.5,0.5,58.5,27.5,90.4,56.1
							c10.7,9.6,21.7,19.5,33.2,28.9c8.5,7,17.4,13.6,26.6,19.9c-24.3,0.9-47.8,4.3-69.4,7.7C202.2,294.9,98.6,319-6.1,350.7z"/>
						<path class="st3" d="M819.4,599.5c-60.8,18.4-123.6,37.4-186.1,40.2c-62,2.7-116.2-12.5-152.6-42.8
							c-5.5-4.5-11.2-9.9-17.2-15.7c-12.8-12.1-27.3-25.8-45.7-37.4c-44.8-28-102.8-36.5-167.7-24.3c-28,5.2-54,13.3-79.1,21.1
							c-17,5.3-33,10.2-48.9,14.1c-54.9,13.4-114.9,12.9-169-1.4c-55.9-14.8-103.2-43.3-136.9-82.3l-89.3,77.1
							c49.3,57.1,117.1,98.4,196,119.3c73.9,19.6,152.5,20.3,227.3,2c19.4-4.7,37.9-10.5,55.8-16c22.9-7.1,44.6-13.8,65.9-17.8
							c34.8-6.5,64.4-3.5,83.4,8.3c8.4,5.3,17.5,13.9,27.1,23c7.1,6.7,14.5,13.7,22.8,20.7c54.9,45.7,130.5,70.4,214.4,70.4
							c6.2,0,12.5-0.1,18.9-0.4c77.3-3.4,150.5-25.5,215.1-45.1c22.5-6.8,48.7-15.6,72.4-29.3c32.2-18.5,54.7-43.1,66.9-72.9
							l-109.2-44.6C877,582,835.1,594.7,819.4,599.5z"/>
					</g>
				</g>
			</g>
		</g>
	</g>
	<g>
		<g>
			<path class="st4" d="M286.8,76.5c0,19.6-15.9,35.4-35.4,35.4c-19.6,0-35.4-15.9-35.4-35.4c0-19.6,15.9-35.4,35.4-35.4
				C270.9,41.1,286.8,56.9,286.8,76.5z"/>
		</g>
		<g>
			<path class="st5" d="M232.6,53.2c-3.4,2.3-3.5,5.3-2.3,6c2.1,1.3,5.9-1.9,8-3.8C241,53,237,50.4,232.6,53.2z"/>
			<path class="st6" d="M234.3,53.3c-1.3,0.9-1.4,2.1-0.9,2.4c0.8,0.5,2.3-0.8,3.2-1.5C237.6,53.2,236,52.2,234.3,53.3z"/>
			<path class="st5" d="M226.3,71.9c-0.6,1-0.2,2.6,1.3,2.8c2.1,0.4,3-1,2.4-2.8C229.5,70.1,227,70.7,226.3,71.9z"/>
			<path class="st5" d="M243.6,65.5c-4.7,3-6.1,7.7,0,7.1c6.1-0.6,10.1-5,8.1-7.1C250,63.7,245.8,64.1,243.6,65.5z"/>
			<path class="st6" d="M246,65.6c-1.8,1.2-2.4,3,0,2.7c2.4-0.2,3.9-1.9,3.2-2.7C248.5,64.9,246.9,65,246,65.6z"/>
			<path class="st5" d="M222.3,79.3c-4.7,5.5,3.1,22.3,9.2,21.2c6.1-1.2,5.7-12.8,3.7-16.6C233.6,80.5,224.6,76.6,222.3,79.3z"/>
			<path class="st6" d="M225.5,82.1c-2.4,2.8,1.6,11.3,4.6,10.7c3.1-0.6,2.9-6.4,1.9-8.4C231.2,82.8,226.7,80.8,225.5,82.1z"/>
			<path class="st5" d="M253,46.5c-1.6,0.5-2,3.1,0,3.4c2.3,0.3,4.2,0.2,4.3-1.7C257.3,46,254.9,45.9,253,46.5z"/>
			<path class="st5" d="M278.3,72.1c-1.6,0.5-2,3.1,0,3.4c2.3,0.3,4.2,0.2,4.3-1.7C282.6,71.6,280.2,71.5,278.3,72.1z"/>
			<path class="st5" d="M266.7,57.8c-4.1,0.8-7.3,4.1-2.5,5.8c4.7,1.7,14.3,0,10.7-3.6C272.8,57.9,268.8,57.4,266.7,57.8z"/>
			<path class="st6" d="M265.7,59.2c-1.2,0.2-2.1,1.2-0.7,1.7c1.4,0.5,4.2,0,3.2-1.1C267.5,59.2,266.4,59,265.7,59.2z"/>
			<path class="st5" d="M260,99.9c-4.1,0.8-3.9,6.1,0.9,7.8c4.7,1.7,14.4-9.1,10.8-12.7C269.5,92.8,262.1,99.4,260,99.9z"/>
			<path class="st6" d="M261.5,104.5c-1.9,0.3-1.8,1.9,0.4,2.5c2.2,0.5,6.6-2.9,4.9-4C265.9,102.2,262.5,104.3,261.5,104.5z"/>
			<path class="st5" d="M261.3,76.6c-1.6,0.9-3.7,3.3,0,2.7c3.3-0.6,5.6-1.6,5.5-2.6C266.7,75,263.3,75.5,261.3,76.6z"/>
			<path class="st5" d="M241.9,79.9c-0.5,5.2,1,18.8,4.7,13.7c3.3-4.4,10.2-17.3,6.1-17.7C248.1,75.5,242.1,77.6,241.9,79.9z"/>
			<path class="st6" d="M243.3,80.9c-0.2,1.8,0.3,6.5,1.6,4.7c1.1-1.5,3.5-5.9,2.1-6.1C245.5,79.3,243.4,80.1,243.3,80.9z"/>
			<path class="st5" d="M253.3,93.2c-0.3,1.6-0.6,4.2,1.9,3.6c2.8-0.7,2.2-4.2,1.8-4.9C256.2,90.5,253.6,91,253.3,93.2z"/>
			<path class="st5" d="M271.6,85.4c-2.1,4.2-2,7.6,2.3,4.9c4.3-2.7,4.7-9.6,2.5-9.3C273.8,81.4,271.6,85.4,271.6,85.4z"/>
			<path class="st6" d="M274.9,84c-0.7,1.5-0.7,2.7,0.8,1.8c1.6-1,1.7-3.5,0.9-3.4C275.7,82.6,274.9,84,274.9,84z"/>
			<path class="st5" d="M242.8,100.9c-1.6,0.8-2,3.8,0.8,4.9c1.3,0.5,5.6-0.4,4.6-3.1C247.4,100.3,243.8,100.3,242.8,100.9z"/>
		</g>
	</g>
	<g>
		<g>
			<g>
				<path class="st7" d="M193.7,685.6c0,27.2-22,49.2-49.2,49.2c-27.2,0-49.2-22-49.2-49.2c0-27.2,22-49.2,49.2-49.2
					C171.7,636.3,193.7,658.4,193.7,685.6z"/>
			</g>
			<g>
				<g>
					<path class="st8" d="M109.7,720.4c1.9,1.9,4,3.6,6.2,5.2c13.1-2.4,40.3,7.2,56.3,0.6c3.6-2.4,6.8-5.3,9.6-8.6
						C161.8,700.3,124,716.7,109.7,720.4z"/>
				</g>
				<g>
					<path class="st8" d="M177.3,648.8c-20.5,3.6-49.2-0.8-61.8-3.1c-3.1,2.3-5.9,4.8-8.4,7.7c18.7,8.2,52.4,20.8,85.6,22.2
						C190.6,665.1,185,655.7,177.3,648.8z"/>
				</g>
				<g>
					<path class="st8" d="M95.5,680.6c-0.2,1.6-0.2,3.3-0.2,5c0,1.8,0.1,3.5,0.3,5.2c29.6-0.5,94.4,5.3,3.4,13.4
						c1.1,2.8,2.5,5.5,4.2,8l87.6-9.5c1.7-4.6,2.8-9.6,3-14.8C162.3,676.2,123,685.1,95.5,680.6z"/>
				</g>
			</g>
			<g>
				<path class="st8" d="M130.8,671.3c0-2.9-6.2-5.3-13.7-5.3c-7.6,0-13.7,2.4-13.7,5.3c0,2.9,6.2,5.3,13.7,5.3
					C124.7,676.5,130.8,674.2,130.8,671.3z"/>
			</g>
			<path class="st8" d="M160.3,644.2c0-1.2-3.3-2.1-7.3-2.1c-4,0-7.3,0.9-7.3,2.1c0,1.2,3.3,2.1,7.3,2.1
				C157,646.3,160.3,645.4,160.3,644.2z"/>
			<path class="st8" d="M140,645.2c0-0.8-2.2-1.4-4.8-1.4c-2.7,0-4.8,0.6-4.8,1.4c0,0.8,2.2,1.4,4.8,1.4
				C137.8,646.5,140,645.9,140,645.2z"/>
			<path class="st8" d="M145.3,730.7c0-0.7-2.7-1.2-5.9-1.2c-3.3,0-5.9,0.6-5.9,1.2c0,0.7,2.7,1.2,5.9,1.2
				C142.7,731.9,145.3,731.3,145.3,730.7z"/>
			<path class="st8" d="M178.2,709.8c0,1.5,0.7,2.7,1.6,2.7c0.9,0,1.6-1.2,1.6-2.7c0-1.5-0.7-2.7-1.6-2.7
				C178.9,707,178.2,708.3,178.2,709.8z"/>
			<path class="st8" d="M137.3,675.7c0,1,2.5,1.8,5.7,1.8c3.1,0,5.7-0.8,5.7-1.8c0-1-2.5-1.8-5.7-1.8
				C139.9,674,137.3,674.8,137.3,675.7z"/>
		</g>
	</g>
	<g>
		<path class="st9" d="M172.6,141.7c-4.4,21.8-25.7,35.9-47.5,31.5c-21.8-4.4-35.9-25.7-31.5-47.5c4.4-21.8,25.7-35.9,47.5-31.5
			C163,98.6,177,119.9,172.6,141.7z"/>
		<path class="st10" d="M184.3,128.5c10.6,5.3,16.6,10.7,15.7,15.2c-1.9,9.3-33.1,10.8-69.6,3.3c-36.6-7.4-64.7-21-62.8-30.3
			c0.9-4.6,9.2-7.3,21.8-7.9"/>
	</g>
	<g>
		<path class="st11" d="M716.8,90.1c25.5,23.2,27.4,62.6,4.2,88.1c-23.2,25.5-62.6,27.4-88.1,4.2c-25.5-23.2-27.4-62.6-4.2-88.1
			C651.9,68.9,691.3,67,716.8,90.1z"/>
		<path class="st12" d="M674,126.4c10,9.1,10.8,24.6,1.7,34.6c-9.1,10-24.6,10.8-34.6,1.7c-10-9.1-10.8-24.6-1.7-34.6
			C648.5,118.1,664,117.3,674,126.4z"/>
		<path class="st12" d="M678.4,95.9c3.3,3,3.6,8.2,0.6,11.6c-3,3.3-8.2,3.6-11.6,0.6c-3.3-3-3.6-8.2-0.6-11.6
			C669.9,93.2,675.1,92.9,678.4,95.9z"/>
		<path class="st12" d="M726.7,127.9c3.3,3,3.6,8.2,0.6,11.6c-3,3.3-8.2,3.6-11.6,0.6c-3.3-3-3.6-8.2-0.6-11.6
			C718.2,125.1,723.3,124.8,726.7,127.9z"/>
		<path class="st12" d="M708.9,163.8c3.3,3,3.6,8.2,0.6,11.6c-3,3.3-8.2,3.6-11.6,0.6c-3.3-3-3.6-8.2-0.6-11.6
			C700.4,161.1,705.6,160.8,708.9,163.8z"/>
		<path class="st12" d="M705.9,133.1c3.3,3,3.6,8.2,0.6,11.6c-3,3.3-8.2,3.6-11.6,0.6c-3.3-3-3.6-8.2-0.6-11.6
			C697.4,130.3,702.6,130,705.9,133.1z"/>
		<path class="st12" d="M664.4,179.2c2.3,2.1,2.5,5.6,0.4,7.9c-2.1,2.3-5.6,2.5-7.9,0.4c-2.3-2.1-2.5-5.6-0.4-7.9
			C658.6,177.3,662.1,177.1,664.4,179.2z"/>
		<path class="st12" d="M683.2,176.5c1.1,1,1.2,2.8,0.2,4c-1,1.2-2.8,1.2-4,0.2c-1.1-1-1.2-2.8-0.2-4
			C680.3,175.5,682.1,175.4,683.2,176.5z"/>
		<path class="st12" d="M644.4,110.9c1.1,1,1.2,2.8,0.2,4c-1,1.1-2.8,1.2-4,0.2c-1.1-1-1.2-2.8-0.2-4
			C641.5,109.9,643.2,109.9,644.4,110.9z"/>
		<path class="st12" d="M712.8,104.7c1.1,1,1.2,2.8,0.2,4c-1,1.2-2.8,1.2-4,0.2c-1.1-1-1.2-2.8-0.2-4
			C709.9,103.7,711.6,103.6,712.8,104.7z"/>
	</g>
	<g>
		<g>
			<path class="st13" d="M319.9,547.8c0,2.4-1.9,4.4-4.4,4.4c-2.4,0-4.4-2-4.4-4.4c0-2.4,1.9-4.4,4.4-4.4
				C318,543.5,319.9,545.4,319.9,547.8z"/>
			<path class="st13" d="M345.9,482.5c0,1.1-0.9,2-2,2c-1.1,0-2-0.9-2-2c0-1.1,0.9-2,2-2C345,480.5,345.9,481.4,345.9,482.5z"/>
			<path class="st13" d="M404.2,559.2c0,1.7-1.4,3.1-3.1,3.1c-1.7,0-3.1-1.4-3.1-3.1c0-1.7,1.4-3.1,3.1-3.1
				C402.8,556.1,404.2,557.5,404.2,559.2z"/>
			<path class="st14" d="M356.1,587.8c0,1.7-1.4,3.1-3.1,3.1s-3.1-1.4-3.1-3.1c0-1.7,1.4-3.1,3.1-3.1S356.1,586.1,356.1,587.8z"/>
			<path class="st14" d="M418,498.6c0,3.8-3.1,6.9-6.9,6.9c-3.8,0-6.9-3.1-6.9-6.9c0-3.8,3.1-6.9,6.9-6.9
				C414.9,491.7,418,494.8,418,498.6z"/>
		</g>
		<g>
			<path class="st13" d="M460.2,546.6c1.7-1.7,4.5-1.7,6.2,0c1.7,1.7,1.7,4.5,0,6.2c-1.7,1.7-4.5,1.7-6.2,0
				C458.5,551,458.5,548.3,460.2,546.6z"/>
			<path class="st14" d="M729.8,310.8c1.2-1.2,3.1-1.2,4.4,0c1.2,1.2,1.2,3.1,0,4.4c-1.2,1.2-3.2,1.2-4.4,0
				C728.6,313.9,728.6,312,729.8,310.8z"/>
		</g>
		<g>
			<path class="st13" d="M610.1,331.9c-2.1-1.2-2.7-3.9-1.5-6c1.2-2.1,3.9-2.7,6-1.5c2.1,1.2,2.7,3.9,1.5,6
				C614.9,332.5,612.2,333.1,610.1,331.9z"/>
			<path class="st13" d="M652.5,388c-1-0.6-1.3-1.8-0.7-2.8c0.6-1,1.8-1.3,2.8-0.7c1,0.6,1.3,1.8,0.7,2.8
				C654.7,388.3,653.5,388.6,652.5,388z"/>
			<path class="st14" d="M557.1,342.1c-1.5-0.9-1.9-2.8-1-4.2c0.9-1.5,2.8-1.9,4.2-1c1.5,0.9,1.9,2.8,1,4.2
				C560.5,342.5,558.6,342.9,557.1,342.1z"/>
			<path class="st14" d="M601.4,441.2c-3.3-2-4.3-6.2-2.3-9.5c2-3.3,6.2-4.3,9.5-2.3c3.3,2,4.3,6.2,2.3,9.5
				C608.9,442.2,604.6,443.2,601.4,441.2z"/>
		</g>
		<g>
			<path class="st13" d="M538.5,452.4c0.6,2.3-0.9,4.7-3.2,5.3c-2.3,0.6-4.7-0.9-5.3-3.2c-0.6-2.3,0.9-4.7,3.2-5.3
				C535.5,448.6,537.9,450.1,538.5,452.4z"/>
			<path class="st14" d="M583.1,482.7c0.4,1.7-0.6,3.3-2.3,3.7c-1.7,0.4-3.3-0.6-3.7-2.3c-0.4-1.7,0.6-3.3,2.3-3.7
				C581.1,480,582.7,481,583.1,482.7z"/>
		</g>
		<g>
			<path class="st13" d="M762,121.1c1.3-1.1,3.3-0.9,4.3,0.5c1.1,1.3,0.9,3.3-0.5,4.3c-1.3,1.1-3.3,0.9-4.3-0.5
				C760.5,124.1,760.7,122.2,762,121.1z"/>
			<path class="st14" d="M480.5,360.4c1.3-1.1,3.3-0.9,4.3,0.5c1.1,1.3,0.9,3.3-0.5,4.3c-1.3,1.1-3.3,0.9-4.3-0.5
				C478.9,363.4,479.2,361.4,480.5,360.4z"/>
			<path class="st14" d="M706.2,148.3c3-2.4,7.3-1.9,9.7,1c2.4,3,1.9,7.3-1,9.7c-3,2.4-7.3,1.9-9.7-1
				C702.7,155.1,703.2,150.7,706.2,148.3z"/>
		</g>
		<g>
			<path class="st13" d="M556.3,556.8c1.3-1.1,3.3-0.9,4.3,0.5c1.1,1.3,0.9,3.3-0.5,4.3c-1.3,1.1-3.3,0.9-4.3-0.5
				C554.8,559.8,555,557.9,556.3,556.8z"/>
			<path class="st14" d="M340.9,158.6c1.3-1.1,3.3-0.9,4.3,0.5c1.1,1.3,0.9,3.3-0.5,4.3c-1.3,1.1-3.3,0.9-4.3-0.5
				C339.4,161.6,339.6,159.7,340.9,158.6z"/>
			<path class="st14" d="M261.2,209.8c1.2,1.5,0.9,3.7-0.7,4.9c-1.5,1.2-3.7,0.9-4.9-0.7c-1.2-1.5-0.9-3.7,0.7-4.9
				C257.8,208,260,208.3,261.2,209.8z"/>
		</g>
		<g>
			<path class="st13" d="M423.4,54c-2.4-0.3-4.1-2.4-3.9-4.8c0.3-2.4,2.4-4.1,4.8-3.9c2.4,0.3,4.1,2.4,3.9,4.8
				C427.9,52.5,425.8,54.3,423.4,54z"/>
			<path class="st14" d="M673.4,117.1c-1.7-0.2-2.9-1.7-2.7-3.4c0.2-1.7,1.7-2.9,3.4-2.7c1.7,0.2,2.9,1.7,2.7,3.4
				C676.6,116,675.1,117.3,673.4,117.1z"/>
		</g>
		<g>
			<path class="st13" d="M761.8,532.4c-0.7-1.2-0.4-2.7,0.8-3.4c1.2-0.7,2.7-0.4,3.4,0.8c0.7,1.2,0.4,2.7-0.8,3.4
				C764,533.9,762.5,533.5,761.8,532.4z"/>
			<path class="st13" d="M772.3,602.6c-0.6-1-0.3-2.2,0.7-2.8c1-0.6,2.2-0.3,2.8,0.7c0.6,1,0.3,2.2-0.7,2.8
				C774.2,603.9,772.9,603.6,772.3,602.6z"/>
			<path class="st13" d="M682.5,567.8c-0.9-1.4-0.4-3.3,1-4.2c1.4-0.9,3.3-0.4,4.2,1c0.9,1.4,0.4,3.3-1,4.2
				C685.3,569.7,683.4,569.3,682.5,567.8z"/>
			<path class="st14" d="M708.4,518.3c-0.9-1.4-0.4-3.3,1-4.2c1.4-0.9,3.3-0.4,4.2,1c0.9,1.4,0.4,3.3-1,4.2
				C711.2,520.2,709.3,519.7,708.4,518.3z"/>
			<path class="st14" d="M704.6,625.4c-1.3-2.1-0.6-4.8,1.4-6.1s4.8-0.6,6.1,1.4c1.3,2.1,0.6,4.8-1.4,6.1
				C708.6,628.1,705.9,627.5,704.6,625.4z"/>
		</g>
		<g>
			<path class="st13" d="M641.4,608c-0.6,2.3-2.9,3.8-5.2,3.2c-2.3-0.6-3.8-2.9-3.2-5.2c0.6-2.3,2.9-3.8,5.2-3.2
				C640.5,603.3,642,605.6,641.4,608z"/>
			<path class="st14" d="M667.4,655.3c-0.4,1.7-2.1,2.7-3.7,2.3c-1.7-0.4-2.7-2.1-2.3-3.7c0.4-1.7,2.1-2.7,3.7-2.3
				C666.8,651.9,667.8,653.6,667.4,655.3z"/>
		</g>
		<g>
			<path class="st13" d="M743.9,458.2c2.4,0,4.4,1.9,4.4,4.3c0,2.4-1.9,4.4-4.3,4.4c-2.4,0-4.4-1.9-4.4-4.3
				C739.5,460.1,741.5,458.2,743.9,458.2z"/>
			<path class="st13" d="M678.4,432.6c1.1,0,2,0.9,2,2c0,1.1-0.9,2-2,2c-1.1,0-2-0.9-2-2C676.3,433.5,677.2,432.6,678.4,432.6z"/>
			<path class="st14" d="M783.6,421.7c1.7,0,3.1,1.4,3.1,3.1c0,1.7-1.4,3.1-3.1,3.1c-1.7,0-3.1-1.4-3.1-3.1
				C780.6,423.1,781.9,421.7,783.6,421.7z"/>
			<path class="st14" d="M576.4,772.9c3.1,0,5.7,2.5,5.7,5.7c0,3.1-2.5,5.7-5.7,5.7c-3.1,0-5.7-2.5-5.7-5.7
				C570.7,775.5,573.3,772.9,576.4,772.9z"/>
		</g>
		<g>
			<path class="st13" d="M624.1,729.2c-1.7-1.7-1.7-4.4,0-6.2c1.7-1.7,4.4-1.7,6.2,0c1.7,1.7,1.7,4.4,0,6.2
				C628.6,730.8,625.8,730.8,624.1,729.2z"/>
			<path class="st14" d="M570.2,726.8c-1.2-1.2-1.2-3.1,0-4.4c1.2-1.2,3.1-1.2,4.4,0c1.2,1.2,1.2,3.1,0,4.4
				C573.4,728,571.4,728,570.2,726.8z"/>
		</g>
		<g>
			<path class="st13" d="M776.6,766.2c-0.6,1.6-2.3,2.4-3.9,1.9c-1.6-0.6-2.4-2.3-1.9-3.9c0.6-1.6,2.3-2.4,3.9-1.9
				C776.3,762.9,777.1,764.6,776.6,766.2z"/>
			<path class="st14" d="M721.7,777.2c-0.6,1.6-2.3,2.4-3.9,1.9c-1.6-0.6-2.4-2.3-1.9-3.9c0.6-1.6,2.3-2.4,3.9-1.9
				C721.5,773.8,722.3,775.6,721.7,777.2z"/>
			<path class="st14" d="M442,713.8c-0.6,1.6-2.3,2.4-3.9,1.8c-1.6-0.6-2.4-2.3-1.8-3.9c0.6-1.6,2.3-2.4,3.9-1.8
				C441.7,710.5,442.5,712.2,442,713.8z"/>
		</g>
		<g>
			<path class="st13" d="M25.6,230.2c0,2.4-1.9,4.4-4.4,4.4c-2.4,0-4.4-1.9-4.4-4.4c0-2.4,1.9-4.4,4.4-4.4
				C23.7,225.8,25.6,227.8,25.6,230.2z"/>
			<circle class="st13" cx="49.6" cy="164.8" r="2"/>
			<path class="st13" d="M109.8,241.5c0,1.7-1.4,3.1-3.1,3.1c-1.7,0-3.1-1.4-3.1-3.1c0-1.7,1.4-3.1,3.1-3.1
				C108.4,238.5,109.8,239.8,109.8,241.5z"/>
			<path class="st14" d="M61.8,270.2c0,1.7-1.4,3.1-3.1,3.1c-1.7,0-3.1-1.4-3.1-3.1c0-1.7,1.4-3.1,3.1-3.1
				C60.4,267.1,61.8,268.5,61.8,270.2z"/>
			<path class="st14" d="M123.6,180.9c0,3.8-3.1,6.9-6.9,6.9c-3.8,0-6.9-3.1-6.9-6.9c0-3.8,3.1-6.9,6.9-6.9
				C120.6,174,123.6,177.1,123.6,180.9z"/>
		</g>
		<g>
			<path class="st13" d="M244.1,134.7c0.6,2.3-0.9,4.7-3.2,5.3c-2.3,0.6-4.7-0.9-5.3-3.2c-0.6-2.3,0.9-4.7,3.2-5.3
				C241.2,131,243.6,132.4,244.1,134.7z"/>
			<path class="st14" d="M263.9,263.9c-1.7,0.4-3.3-0.7-3.7-2.4c-0.4-1.7,0.7-3.3,2.4-3.7c1.7-0.4,3.3,0.7,3.7,2.4
				C266.6,261.9,265.6,263.6,263.9,263.9z"/>
		</g>
		<g>
			<path class="st13" d="M133.7,23.3c1.3-1.1,3.3-0.9,4.3,0.5c1.1,1.3,0.9,3.3-0.5,4.3c-1.3,1.1-3.3,0.9-4.3-0.5
				C132.2,26.3,132.4,24.4,133.7,23.3z"/>
			<path class="st14" d="M186.1,42.7c1.3-1.1,3.3-0.9,4.3,0.5c1.1,1.3,0.9,3.3-0.5,4.3c-1.3,1.1-3.3,0.9-4.3-0.5
				C184.6,45.7,184.8,43.8,186.1,42.7z"/>
			<path class="st14" d="M77.9,50.5c3-2.4,7.3-1.9,9.7,1c2.4,3,1.9,7.3-1,9.7c-3,2.4-7.3,1.9-9.7-1C74.4,57.3,74.9,52.9,77.9,50.5z"
				/>
		</g>
		<g>
			<path class="st13" d="M465.9,215.7c-1.3-2-0.6-4.7,1.4-6c2-1.3,4.7-0.6,6,1.4c1.3,2,0.6,4.7-1.4,6
				C469.8,218.4,467.1,217.8,465.9,215.7z"/>
			<path class="st13" d="M478,285c-0.6-1-0.3-2.2,0.7-2.8c1-0.6,2.2-0.3,2.8,0.7c0.6,1,0.3,2.2-0.7,2.8
				C479.8,286.2,478.6,285.9,478,285z"/>
			<path class="st13" d="M555.6,207.3c-0.9-1.4-0.4-3.3,1-4.2c1.4-0.9,3.3-0.4,4.2,1c0.9,1.4,0.4,3.3-1,4.2
				C558.4,209.2,556.5,208.8,555.6,207.3z"/>
			<path class="st14" d="M581.5,157.8c-0.9-1.4-0.4-3.3,1-4.2c1.4-0.9,3.3-0.4,4.2,1c0.9,1.4,0.4,3.3-1,4.2
				C584.3,159.7,582.4,159.2,581.5,157.8z"/>
			<path class="st14" d="M448.5,57.8c-2-3.2-1-7.5,2.3-9.5c3.2-2,7.5-1,9.5,2.3c2,3.2,1,7.5-2.3,9.5
				C454.8,62.1,450.5,61.1,448.5,57.8z"/>
		</g>
		<g>
			<path class="st13" d="M347.1,290.3c-0.6,2.3-2.9,3.8-5.2,3.2s-3.8-2.9-3.2-5.2c0.6-2.3,2.9-3.8,5.2-3.2
				C346.2,285.6,347.7,287.9,347.1,290.3z"/>
			<path class="st14" d="M413.4,86.4c-0.4,1.7-2.1,2.7-3.7,2.3c-1.7-0.4-2.7-2.1-2.3-3.7c0.4-1.7,2.1-2.7,3.7-2.3
				C412.7,83.1,413.8,84.7,413.4,86.4z"/>
		</g>
		<g>
			<path class="st13" d="M329.8,411.5c-1.7-1.7-1.7-4.4,0-6.2c1.7-1.7,4.4-1.7,6.2,0c1.7,1.7,1.7,4.4,0,6.2
				C334.3,413.2,331.5,413.2,329.8,411.5z"/>
			<path class="st14" d="M275.9,409.1c-1.2-1.2-1.2-3.1,0-4.4c1.2-1.2,3.1-1.2,4.4,0c1.2,1.2,1.2,3.1,0,4.4
				C279,410.3,277.1,410.3,275.9,409.1z"/>
		</g>
		<g>
			<path class="st13" d="M749.1,266.6c-0.6,1.6-2.3,2.4-3.9,1.9c-1.6-0.6-2.4-2.3-1.9-3.9c0.6-1.6,2.3-2.4,3.9-1.9
				C748.9,263.3,749.7,265,749.1,266.6z"/>
			<path class="st14" d="M694.3,277.6c-0.6,1.6-2.3,2.4-3.9,1.9c-1.6-0.6-2.4-2.3-1.9-3.9c0.6-1.6,2.3-2.4,3.9-1.9
				C694.1,274.2,694.9,276,694.3,277.6z"/>
			<path class="st14" d="M180.9,300.4c-0.9,2.5-3.7,3.9-6.2,3c-2.5-0.9-3.9-3.7-3-6.2c0.9-2.5,3.7-3.9,6.2-3
				C180.4,295.1,181.8,297.9,180.9,300.4z"/>
		</g>
		<g>
			<path class="st13" d="M378.5,697.5c0.5-2.3,2.8-3.8,5.2-3.3c2.3,0.5,3.8,2.8,3.3,5.2c-0.5,2.3-2.8,3.8-5.2,3.3
				C379.5,702.2,378,699.9,378.5,697.5z"/>
			<path class="st13" d="M339.3,755.9c0.2-1.1,1.3-1.8,2.4-1.6c1.1,0.2,1.8,1.3,1.6,2.4c-0.2,1.1-1.3,1.8-2.4,1.6
				C339.7,758,339,757,339.3,755.9z"/>
			<path class="st13" d="M298.6,668.5c0.4-1.7,2-2.7,3.7-2.4c1.7,0.4,2.7,2,2.4,3.7c-0.4,1.7-2,2.7-3.7,2.4
				C299.3,671.8,298.3,670.2,298.6,668.5z"/>
			<path class="st14" d="M509.7,638c0.4-1.7,2-2.7,3.7-2.4c1.7,0.4,2.7,2,2.4,3.7c-0.4,1.7-2,2.7-3.7,2.4
				C510.4,641.3,509.4,639.7,509.7,638z"/>
			<path class="st14" d="M272.3,724.8c0.8-3.7,4.5-6.1,8.2-5.3c3.7,0.8,6.1,4.5,5.3,8.2c-0.8,3.7-4.5,6.1-8.2,5.3
				C273.8,732.2,271.5,728.6,272.3,724.8z"/>
		</g>
		<g>
			<path class="st13" d="M186.1,469.7c-2,1.3-4.7,0.7-6-1.3c-1.3-2-0.7-4.7,1.3-6c2-1.3,4.7-0.7,6,1.3
				C188.7,465.7,188.2,468.4,186.1,469.7z"/>
			<path class="st14" d="M206.3,530.6c-1.4,0.9-3.3,0.5-4.3-0.9c-0.9-1.4-0.5-3.3,0.9-4.3c1.4-0.9,3.3-0.5,4.3,0.9
				C208.1,527.8,207.7,529.7,206.3,530.6z"/>
		</g>
		<g>
			<path class="st13" d="M19.6,783.2c0.8,0.8,0.8,2.1,0.1,2.9c-0.8,0.8-2.1,0.8-2.9,0.1c-0.8-0.8-0.8-2.1-0.1-2.9
				C17.5,782.5,18.8,782.4,19.6,783.2z"/>
			<path class="st14" d="M80.9,742c2.8,2.6,2.9,7,0.3,9.8c-2.6,2.8-7,2.9-9.8,0.3c-2.8-2.6-2.9-7-0.3-9.8
				C73.8,739.5,78.1,739.4,80.9,742z"/>
		</g>
		<g>
			<path class="st13" d="M144.8,744.4c-0.1-2.4,1.8-4.4,4.2-4.5c2.4-0.1,4.4,1.8,4.5,4.2c0.1,2.4-1.8,4.4-4.2,4.5
				C146.8,748.7,144.8,746.8,144.8,744.4z"/>
			<path class="st14" d="M107.5,705.4c0-1.7,1.3-3.1,3-3.2c1.7,0,3.1,1.3,3.2,3c0,1.7-1.3,3.1-3,3.2
				C109,708.4,107.6,707.1,107.5,705.4z"/>
		</g>
		<g>
			<path class="st13" d="M77.1,570.6c1-2.2,3.6-3.1,5.8-2c2.2,1,3.1,3.6,2,5.8c-1,2.2-3.6,3.1-5.8,2C77,575.4,76.1,572.8,77.1,570.6
				z"/>
			<path class="st14" d="M61.8,518.9c0.7-1.5,2.6-2.2,4.1-1.4c1.5,0.7,2.2,2.6,1.4,4.1c-0.7,1.5-2.6,2.2-4.1,1.4
				C61.7,522.2,61,520.4,61.8,518.9z"/>
		</g>
		<g>
			<path class="st14" d="M34.5,388.2c0.9-1.4,2.8-1.9,4.2-1c1.4,0.9,1.9,2.8,1,4.2c-0.9,1.4-2.8,1.9-4.2,1
				C34,391.5,33.6,389.6,34.5,388.2z"/>
			<path class="st14" d="M242.3,596.3c1.2-2,3.8-2.6,5.7-1.3c2,1.2,2.6,3.8,1.3,5.7c-1.2,2-3.8,2.6-5.7,1.3
				C241.7,600.8,241.1,598.3,242.3,596.3z"/>
		</g>
		<g>
			<path class="st13" d="M198.9,760.1c0.9-1.4,2.8-1.9,4.2-1c1.4,0.9,1.9,2.8,1,4.2c-0.9,1.4-2.8,1.9-4.2,1
				C198.4,763.4,198,761.6,198.9,760.1z"/>
			<path class="st14" d="M254.8,761c0.9-1.4,2.8-1.9,4.2-1c1.4,0.9,1.9,2.8,1,4.2c-0.9,1.4-2.8,1.9-4.2,1
				C254.3,764.4,253.9,762.5,254.8,761z"/>
		</g>
		<g>
			<path class="st13" d="M469.3,774.4c2.2-1,4.8-0.1,5.8,2.1c1,2.2,0.1,4.8-2.1,5.8c-2.2,1-4.8,0.1-5.8-2.1
				C466.3,778.1,467.2,775.5,469.3,774.4z"/>
			<path class="st14" d="M179.2,651.8c1.5-0.7,3.4-0.1,4.1,1.5c0.7,1.5,0.1,3.4-1.5,4.1c-1.5,0.7-3.4,0.1-4.1-1.5
				C177,654.3,177.7,652.5,179.2,651.8z"/>
		</g>
	</g>
	<g>
		
			<ellipse transform="matrix(0.7071 -0.7071 0.7071 0.7071 -177.0148 417.4302)" class="st15" cx="415.4" cy="422.4" rx="173.6" ry="173.6"/>
		<g>
			<g>
				<g>
					<g>
						<path class="st16" d="M258.5,369c1.9,2.9-0.9,10.4,0,13.6c0.9,3.3,4.2,9.8,7.1,11.7c1.2,0.8,4.6,1.7,5.7,0.9
							c0.9-0.6,0.9-3,0.7-4c-0.6-3-5.7-7.3-6.8-10.2c-0.9-2.3-3-8-1.3-9.9c0.7-0.7,3.2-0.6,4,0c2,1.7,0.7,7.8,1.7,10.2
							c1.6,3.9,9.6,9.7,9.8,13.9c0.1,1.3-2.6,3.2-2.5,4.5c0.1,2.8,3.9,7.7,6.2,9.3c3.2,2.2,12.3,6.1,15.4,3.7c0.5-0.4-0.5-2,0-2.4
							c1.2-1,5.2-0.4,6.2,0.9c0.7,0.9-1.2,3.4-0.6,4.3c0.7,1,3.6,0.6,4.8,0.9c1.9,0.4,7.5,2,7.5,2s7,10,10.6,11.8
							c3,1.5,11.1-1.3,13.5,1c2,1.9,2.5,8.3,1.3,10.8c-1.2,2.5-7.9,3.9-9.3,6.3c-1.2,2.1-0.1,7.2-0.4,9.6c-0.2,1.5-1.3,5.9-1.3,5.9
							s11.2,11.6,13.4,16.3c0.6,1.3,0.1,4.5,1,5.6c0.9,1,4.9,1.3,5.4,1.3c0.6,0,10.9,7.6,10.9,7.6s-4.6,23.6,0,29.5
							c0.6,0.7,3.2,0.2,3.7,1c1.9,2.9-3.3,10.3-2.5,13.6c0.6,2.4,6.2,8,6.2,8s-1.9,10.2-1.1,13.5c0.9,3.9,5.6,10.9,8.2,14
							c2.2,2.6,7.2,7.7,10.5,8.9c2.5,0.9,8.4,1.7,10.5,0.2c0.7-0.5,1.3-2.5,1-3.3c-0.7-2.4-6.8-4.1-7.7-6.4
							c-0.3-0.7,0.3-2.4,0.4-3.2c0.2-1,1.2-2.9,1.4-3.9c0.2-1,1-3.2,0.3-3.9c-0.9-0.9-4.8,0-5.2-0.1c-1-0.3-2.7-2.2-2.6-3.2
							c0.1-1.5,3.6-2.8,4.4-4.1l0.6-3.1l-4.9-1.4c0.3-2.9,0.3-2.9,0.3-2.9c6.9-1,6.9-1,6.9-1s8.4-3,10.5-4.9c0,0,3.7-6.5,3.5-6.3
							l8.5-10.6c2.5-3.1,2.5-3.1,2.5-3.1l-2.5-10.7c0,0,0,0,0-0.1c0.4-1.6,3.4-5.7,3.4-5.7l10.2,0.3l6.8-5.3
							c2.6-4.6,0.2-15.9,2.2-20.8c1.2-2.8,6.3-6.7,7.6-9.4c0.7-1.4,2.1-4.7,1.3-6c-0.9-1.5-5.5-1.1-6.9-2.2c0,0-3.7-6.5-4.6-7.3
							c0,0-11.8,0.6-15.6-0.1c-1.2-0.2-3.3-1.2-4.4-1.6c-2-0.7,0,0-7.9-3c0,0,0.1-6.5-0.6-8.6c-0.6-1.9-4.1-7-4.1-7
							c-11.2-0.2,0,0-11.2-0.2c-3,0-4.2-7.9-6.5-9.9c-1.2-1-4.3-3.5-5.7-2.7c-0.7,0.4,0.3,2.5-0.3,3c-1.9,1.8-8.1,1.7-10.4,0.6
							c-1.5-0.7-2.4-4.3-3.8-5.2c-2.3-1.5-8.3-3-10.9-2.2c-3.2,1.1-5.7,9-9,10.1c-3.4,1.2-14.1-2.3-14.1-2.3s1.6-12.6-1-15.5
							c-1.7-1.9-9.2,0.6-10.3-1.7c-1-1.9,3.9-5.5,4.1-7.6c0.1-1.1-0.1-4-1.2-4.4c-3.8-1.4-9.6,7.9-13.5,8.8c-2.1,0.5-6.8,0.2-8.5-1
							c-1.5-1.1-2.9-4.7-3-6.5c-0.1-1.7,1.2-5.1,1.9-6.7c0.9-2.2,4.7-8.4,4.7-8.4s7.9-4.7,10.8-5.3c5.1-1.2,17.2-3.6,20.9,0
							c1.1,1.1-0.1,6.2-0.1,6.2s5.8,4.5,7.5,3.4c2.3-1.5-1.6-8.1-0.6-10.6c0.7-1.7,3.9-4.1,5.4-5.3c2.5-2,10.9-7,10.9-7
							s0.2-3.8,0.7-4.9c1.7-3.4,7.8-8.7,10.9-11c2.6-2,11.3-3,11.6-6.2c0-0.3-1-0.5-1-0.8c-0.1-2.6,5.2-6.5,7.8-7.2
							c0.7-0.2,2.2,0.3,2.9,0.7c0.4,0.3,0.8,1.6,1.3,1.6c1.1,0,2.1-2.6,3-3.2c0.2-0.1,0.8-0.1,0.7-0.3c-0.1-0.8-2.5-0.3-3.3-0.4
							c-0.8-0.2-2.8-0.4-3.3-1.1c-0.5-0.6-0.3-2.4,0-3.1c0.2-0.5,1.2-1.2,1.8-1.4c0.9-0.3,2.9-0.2,3.9,0c0.5,0.1,1.4,0.4,1.8,0.8
							c0.6,0.6,0.8,2.6,1.5,3c0.4,0.2,1.6,0.1,1.9-0.3c0-0.1-0.1-0.2,0-0.3c0.1-0.1,0.4,0.2,0.5,0.2c1.4,0.1,4.4,0.1,5.4-0.8
							c0.5-0.4,0.2-2.3,0.8-2.6c0.7-0.4,2.6,0.1,3.1,0.8c0.4,0.6,0.3,2.2,0,2.8c-0.4,0.8-3.1,1.1-2.9,1.9c0,0,0,0,0,0
							c0.6,0.5-0.1,2.5,0.4,3.1c1.2,1.4,5.3,1.6,7.1,2.1c0.7,0.2,2.2,0.3,2.7,0.8c0,0,0,0.1,0,0.1c0.4,0.4,1.9,0.2,2.3-0.2
							c0.7-0.8,0.7-3.3,0.2-4.2c-0.7-1.2-4.4-1.1-5.1-2.3c-0.6-0.9-0.6-3.3,0-4.2c0.5-0.7,2.8-0.4,3.4-1.1c0.9-1.2,1-4.7,0.3-6
							c-0.5-0.9-2.7-1.6-3.7-2.2c-0.8-0.5-2.6-1.1-3.1-1.8c-1.3-2.2-0.4-10.2-0.4-10.2s-6.7,3.9-9.3,4.4c-0.8,0.2-2.8,0.6-3.4,0
							c-1.3-1.5,2-6.2,0.9-7.7c-1.9-2.6-9.4-3.6-12.6-2.9c-1.6,0.3-4.5,2.4-5.2,3.8c-1.3,2.6,1.8,9.4,0,11.7
							c-1.5,1.9-7.5,1.3-9.4,2.9c-1.6,1.4-2,6.4-3.8,7.6c-0.8,0.6-3.3,1.3-4.1,0.6c-1.9-1.6,1.6-7.9,0-9.8c-1.5-1.6-8.8-1.2-8.8-1.2
							l-4.4-2.8c0,0-2.4-4.8-1.8-6.3c1.7-4.1,11.6-7.2,15.8-9c1.8-0.8,6-3.3,7.7-2.3c1.1,0.7-0.2,4.2,0.8,5.1
							c0.8,0.7,3.5,0.5,4.3-0.2c0.5-0.4-0.1-2.1,0.3-2.5c0.8-0.8,3.7,0.2,4.5-0.6c0.2-0.2,0.2-0.7,0.1-0.9c-0.3-0.4-1.6-0.4-1.9-0.8
							c-0.4-0.5-0.9-2.2-0.4-2.7c0.9-1.1,4.3,0.1,5.5-0.5c1.1-0.5,2.6-2.5,3.3-3.4c0.1-0.1,0.1-0.2,0.2-0.2c0,0,0,0,0,0
							c0.4-0.1,0.7-0.9,1-1c2.6-1.3,8.8-2.2,11.6-1.4c1.6,0.5,5.3,2.6,5.1,4.3c-0.4,3.7-14,3.3-13.5,7c0.6,4.3,13.3,5.9,17.1,3.9
							c1.4-0.7,0.9-4.7,2.2-5.6c0.3-0.2,1.1,0,1.5,0c1.5,0,4.7,0.8,6,0c1.2-0.7,3.2-3.6,2.6-4.9c-0.6-1.2-4.5-0.2-5.3-1.3
							c-1-1.2,0.9-4.9,0-6.2c-0.5-0.8-2.5-1.1-3.4-1.5c-3.3-1.4-9.7-5.2-13.2-5.7c-2.9-0.4-8.7,0.5-11.5,1.3
							c-1.7,0.5-5.6,1.8-6.5,3.3c-1,1.7,2,6.7,0.4,8c-1.3,1.1-5.5,0.1-6.8-1c-0.9-0.8-1.4-3.4-1.1-4.4c0.7-2,7.2-3.7,6.5-5.7
							c-1-2.7-8.8-0.9-11.8-0.6c-0.9,0.1-2.7,0.4-3.4,1c-0.8,0.7-2,3-1.5,3.9c0.6,0.9,3.8-0.2,4.4,0.7c0.6,0.9,0,3.6-0.9,4.3
							c-1.4,1.2-6-0.6-7.5,0.4c-0.6,0.4-0.5,2.4-1.2,2.9c-2.2,1.5-8.9,2.1-10.9,0.3c-1.1-1-0.3-5.9-0.7-6c0,0,0,0,0,0c0,0,0,0,0,0
							c0.5,0.1,6.7,0.6,8.5-0.2c2.1-0.9,6.8-4,6.5-6.2c-0.2-1-2.6-1.9-3.5-1.7c-1.6,0.2-3.2,3.9-4.7,4.5c-1.8,0.7-6.1,0.5-7.8-0.4
							c-1.8-0.9-2.9-5.4-4.7-6.3c-2.2-1.1-7.6-0.8-10,0c-3.1,1-11.5,4.6-10.4,7.6c0.8,2.2,7.6-1.4,9.6,0c0.6,0.4,1.1,2,0.9,2.7
							c-0.2,0.8-2.8,1.5-2.5,2.3c0.9,2.4,8.4-1.2,10.6,0.3c0.9,0.6,2.2,2.9,1.6,3.7c-1.7,2.4-9.6,1.5-11.9-0.4
							c-0.6-0.5-0.1-2.3-0.6-2.9c-1.3-1.3-5.7-0.9-7.5-1.6c-1.1-0.4-2.9-1.9-4-2.1c-1.9-0.5-7.2-0.1-8.6,0
							c-25.9,18.2-46.5,43.1-59.2,72.1v9.7C251.1,365.6,257.4,367.3,258.5,369z"/>
					</g>
					<g>
						<path class="st16" d="M520.5,300.6c-1,0.7-3.1,2.5-3.4,3.6c-0.3,1,0.8,4.2,0.8,4.2s3.4-0.1,4.2,0.6c1.3,1,1,5.5,2.5,6.2
							c1.8,0.8,5.6-3.8,7.3-2.9c1.9,1,2.6,6.7,1.2,8.3c-0.4,0.4-1.6,0-2.2,0c-1.5-0.1-4.5-0.9-6-0.9c-1.7,0-5.2,0.2-6.6,1.1
							c-2.3,1.4-4,7.4-6.4,8.8c-2,1.2-7.5-0.2-9.1,1.4c-1.4,1.4-2.4,6-1.3,7.6c0.5,0.8,3.3,0.1,3.9,0.9c0.7,1.1,0,4.2-1.1,4.9
							c-1.9,1.2-6.8-1.8-9.1-1.8c-2.1,0-8.3,1.8-8.3,1.8s-1.6,3.3-1.8,4.5c-0.3,2.4,0,7.6,1.4,9.5c0.8,1.1,3.6,2,4.9,2.2
							c2,0.4,6.1,0,8.2,0c1.4-0.1,4.4,0.3,5.5-0.5c0.9-0.7,1.7-4.3,1.7-4.3s5.3-9.8,8.7-11c1.4-0.5,4.3,1.5,5.7,1.1
							c1.8-0.5,3.8-5.5,5.6-4.9c1,0.3,0.5,3.1,1.1,3.9c2.4,3.3,13.1,5.1,13.8,9.1c0.1,0.7-1,1.9-1.7,2.2c-1.4,0.6-5.5-1.7-6.2-0.3
							c-0.5,0.9,1.5,2.8,2.4,3.3c0.8,0.5,2.9,0.9,3.8,0.8c1.2-0.1,3.8-0.8,4.5-1.8c0.7-1.1-0.8-4.1-0.1-5.3c0.3-0.5,1.9-0.4,2-1
							c0.1-0.6-1.1-1.3-1.6-1.7c-2.1-1.6-7.5-3-9.2-5c-1.2-1.3-3.5-5.2-2.4-6.7c1.1-1.5,5.9-0.7,7.7,0c0.8,0.3,1.8,1.8,2.4,2.4
							c1.6,1.4,5.7,3.6,6.6,5.5c0.8,1.5-0.4,5.2,0.3,6.7c1,2.2,6.8,7.1,6.8,7.1s1-7.7,2.5-9.7c0.8-1,3.5-3.1,4.7-2.5
							c1.8,0.9,0,6.1,0.9,8c0.7,1.5,3.1,4.3,4.6,4.9c1.8,0.8,7.3,0.1,8.8-0.1c-10.3-25.9-26.9-48.7-47.9-66.8
							c-0.4,0.8-1.3,2.7-1.9,3.3C527,298.9,522.3,299.4,520.5,300.6z"/>
					</g>
					<g>
						<path class="st16" d="M582.7,375.5c-3.3,1.2-10.8,1.1-14.1,0c-2.5-0.8-6-5.5-8.6-6.2c-2.2-0.6-7.5-0.8-9,0.9
							c-0.9,1,1,4.4,0,5.4c-0.5,0.5-2.2,0.2-2.9,0c-0.9-0.3-2.2-1.8-3.1-2.1c-3.7-1.7-13.2-0.8-15.7-3.9c-1.6-2,1.9-8.2,0-9.9
							c-3.7-3.3-15.1,0.1-19.9,1.5c-1.7,0.5-4.5,2.8-6.2,3.2c-1.9,0.5-5.9,0.1-7.9,0c-1,0-2.9-0.6-3.9-0.4c-2.7,0.5-8.2,2.9-9.6,5.2
							c-1.3,2.1,1.1,7.6,0,9.8c-2.7,5.2-17.5,8.2-19.6,13.8c-0.5,1.4,0.4,5,1.6,5.9c0.8,0.6,3.3-0.7,4,0c0.9,1.1-0.1,4.5-1,5.6
							c-0.5,0.6-2.4,0.4-2.8,1c-2.2,3-0.1,14.6-0.1,14.6l16.9,18.8c0,0,5.8,1,7.4,0c0.3-0.2,0.2-1,0.4-1.1c2.7-1.8,10.2,1.2,13.2,0
							c1.2-0.5,2.6-3,3.8-3.4c1.7-0.7,5.8-0.7,7.5,0c1.3,0.5,2.8,3.4,4.1,4c2.5,1.2,9.4-1,11.2,1.1c2.4,2.8-1.5,14.5-1.5,14.5
							l12.4,21.4c0,0-5.8,8.8-6.5,12.2c-0.3,1.4-0.2,4.4,0.4,5.7c0.8,1.6,4.5,3.4,5.2,5c1.4,3.2,0,13.8,0,13.8s5.9,6.2,6.7,8.9
							c0.9,2.7,0,11.5,0,11.5h5.6c24.7-29.6,39.6-67.4,39.6-108.6c0-16.8-2.5-33.1-7.1-48.5C583.2,375.2,582.9,375.5,582.7,375.5z"
							/>
					</g>
					<g>
						<path class="st16" d="M498.2,316.4c1,0.6,3.3,1.5,4,2.4c0.4,0.6,0.8,2.2,0.4,2.8c-0.6,0.9-3.5,0.1-4.3,0.9
							c-1,1.1-1.6,4.8-0.6,5.9c0.9,0.9,3.9,0.1,5.1,0c1.7-0.1,5.3,0.1,6.8-0.6c1.2-0.6,3.9-2.8,3.5-4.1c-0.3-1-2.9-0.9-3.8-1.4
							c-0.6-0.4-1.6-1.7-2.1-2.3c-0.9-1.2-2.5-3.5-3.1-4.9c-0.7-1.6,0-5.9-1.5-6.9c-1.2-0.8-4.6,0.3-5.8,1.1
							c-0.6,0.4-1.4,1.7-1.6,2.4c-0.2,0.7-0.3,2.1,0,2.7C495.8,315.3,497.5,316,498.2,316.4z"/>
					</g>
					<g>
						<path class="st16" d="M489.9,326.2c2.1-0.7,6.2-3.1,7.3-5c0.5-0.8,0.8-2.9,0.3-3.7c-0.5-0.8-2.5-1.4-3.4-1.4
							c-1.2-0.1-3.8,0.4-4.8,1.1c-1.4,0.9-3.1,4-3.5,5.5c-0.3,0.9-0.6,2.9,0,3.6C486.5,326.9,488.9,326.5,489.9,326.2z"/>
					</g>
					<g>
						<path class="st16" d="M348.9,284.4C348.9,284.4,348.9,284.4,348.9,284.4C348.9,284.4,348.9,284.4,348.9,284.4z"/>
					</g>
				</g>
			</g>
		</g>
	</g>
	<g>
		<path class="st17" d="M664.9,676.7c0-21.4,17.4-38.8,38.8-38.8c21.4,0,38.8,17.4,38.8,38.8c0,21.4-17.4,38.8-38.8,38.8
			C682.3,715.4,664.9,698.1,664.9,676.7z"/>
		<g>
			<path class="st18" d="M688.8,669.8c0,2.7-2.5,4.9-5.6,4.9c-3.1,0-5.6-2.2-5.6-4.9c0-2.7,2.5-4.9,5.6-4.9
				C686.3,664.9,688.8,667.1,688.8,669.8z"/>
			<path class="st18" d="M698.7,657.8c0,1.3-1.1,2.4-2.4,2.4s-2.4-1.1-2.4-2.4c0-1.3,1.1-2.4,2.4-2.4S698.7,656.5,698.7,657.8z"/>
			<path class="st18" d="M732,687.6c0,3.5-3.2,6.4-7.1,6.4c-3.9,0-7.1-2.9-7.1-6.4c0-3.5,3.2-6.4,7.1-6.4
				C728.8,681.2,732,684,732,687.6z"/>
			<path class="st18" d="M723.6,655.4c0,1.3-0.8,2.4-1.9,2.4c-1,0-1.9-1.1-1.9-2.4c0-1.3,0.8-2.4,1.9-2.4
				C722.8,653,723.6,654.1,723.6,655.4z"/>
			<path class="st18" d="M706.8,678.5c0,0.4-0.3,0.7-0.7,0.7c-0.4,0-0.7-0.3-0.7-0.7c0-0.4,0.3-0.7,0.7-0.7
				C706.5,677.7,706.8,678.1,706.8,678.5z"/>
			<path class="st18" d="M697.3,703.2c0,1.8-2.4,3.3-5.4,3.3c-3,0-5.4-1.5-5.4-3.3c0-1.8,2.4-3.3,5.4-3.3
				C694.8,699.8,697.3,701.3,697.3,703.2z"/>
			<path class="st18" d="M686.8,646.9c0,0.9-0.7,1.6-1.6,1.6c-0.9,0-1.6-0.7-1.6-1.6c0-0.9,0.7-1.6,1.6-1.6
				C686.1,645.3,686.8,646.1,686.8,646.9z"/>
		</g>
		<g>
			<g>
				<g class="st1">
					<path class="st19" d="M725.2,644.4c4.9,7,7.9,15.6,7.9,24.8c0,23.8-19.3,43-43,43c-0.7,0-1.3,0-1.9,0
						c4.8,2.1,10.1,3.3,15.6,3.3c21.4,0,38.8-17.4,38.8-38.8C742.5,663.2,735.6,651.3,725.2,644.4z"/>
				</g>
			</g>
		</g>
	</g>
	<g>
		<g>
			<path class="st20" d="M679.4,518.9c-13.8-6.4-33.2-3.7-41,16.5c0,0.1-0.1,0.1-0.1,0.2c-24.8,57.4-75.1,104.3-141.8,132.1
				c-20.1,8.4-41.1,14.2-62.4,17.3c-2.6,0.4-4.5,2.8-4.1,5.5c0.4,2.6,2.8,4.5,5.5,4.1c22.1-3.3,43.9-9.3,64.7-18
				c13.8-5.7,26.9-12.3,39.2-19.6c0.1,0,0.2-0.1,0.2-0.1c9.1-5.3,12.8-6.2,16.3-1.2c3,4.3,1.2,7.9-3.1,10.8
				c-12.6,7.7-25.8,14.6-39.5,20.6c-2.4,1.1-3.6,3.9-2.5,6.4c1.1,2.4,3.9,3.5,6.3,2.5c0,0,0.1,0,0.1,0
				c31.3-13.7,59.9-31.8,85.1-53.9c0.1-0.1,0.1-0.1,0.2-0.2c4.5-4,11.1-10.5,15.6-6.6c2.5,2.2,3.4,4.4,0,8.6
				c-3.8,3.7-7.7,7.2-11.6,10.7c-2,1.8-2.2,4.8-0.5,6.8c1.4,1.6,3.6,2.1,5.5,1.3c0.5-0.2,0.9-0.5,1.3-0.8
				C720.3,568.7,694.1,525.7,679.4,518.9z M627.7,634.4c-0.8,0.8-1.6,1.6-2.4,2.4L627.7,634.4z"/>
			<g>
				<path class="st21" d="M672.1,534.6c-8.9-4.1-20.9-1.8-25.5,12.7c-5.4,17-23.4,41.9-31,51c-0.9,1-0.7,2.5,0.3,3.4
					c0.7,0.6,1.7,0.7,2.5,0.4c0.3-0.1,0.7-0.4,0.9-0.7c7.2-8.5,13.7-17.5,19.5-26.6c2.1-2.9,5.7-5.4,9.2-4c4.1,1.7,4.9,5.6,3.3,8.4
					c-0.8,1.3-1.5,2.5-2.3,3.8c-0.7,1.1-0.4,2.6,0.8,3.3c0.7,0.4,1.5,0.5,2.2,0.2c0.4-0.2,0.8-0.5,1.1-0.9c1.9-3,3.7-6.1,5.5-9.2
					c0.3-0.3,0.6-0.7,0.8-1.1c2.5-4.2,4.6-6.4,7.1-5.4c2.3,0.9,3.4,2.7,2.1,5.7c-1.2,2.4-2.6,5-4.2,7.7c-0.7,1.2-0.3,2.6,0.9,3.3
					c0.7,0.4,1.5,0.4,2.1,0.1c0.5-0.2,0.9-0.5,1.2-1C690.9,547.4,679.6,538.1,672.1,534.6z"/>
				<path class="st21" d="M641.5,602.2c0.4-0.2,0.7-0.4,1-0.8c1.7-2.3,3.4-4.7,5-7.1c0.8-1.1,0.5-2.6-0.6-3.4
					c-1.1-0.8-2.6-0.5-3.4,0.6c-1.6,2.4-3.3,4.7-4.9,7c-0.8,1.1-0.6,2.6,0.5,3.4C639.8,602.5,640.7,602.5,641.5,602.2z"/>
				<path class="st21" d="M633.8,608.8c-1-0.8-2.6-0.7-3.4,0.3c-3.2,3.9-5.9,7-8.3,9.8c-1.4,1.6-2.6,3-3.7,4.2
					c-0.9,1-0.7,2.5,0.3,3.4c0.7,0.6,1.7,0.7,2.5,0.4c0.3-0.1,0.7-0.4,0.9-0.7c1-1.2,2.2-2.6,3.6-4.2c2.3-2.7,5.2-6,8.4-9.9
					C635,611.1,634.9,609.6,633.8,608.8z"/>
				<path class="st21" d="M604,611.3c-4.6,4.8-9.4,9.4-14.3,13.7c-1,0.9-1.1,2.4-0.2,3.4c0.7,0.8,1.8,1,2.7,0.6
					c0.2-0.1,0.5-0.2,0.7-0.4c5-4.4,9.9-9.1,14.5-13.9c0.9-1,0.9-2.5-0.1-3.4C606.5,610.3,605,610.3,604,611.3z"/>
				<path class="st21" d="M581.1,632.3c-4.2,3.4-6.8,5.1-6.9,5.1c-1.1,0.7-1.4,2.2-0.7,3.4c0.7,1,1.9,1.3,2.9,0.9
					c0.1-0.1,0.3-0.1,0.4-0.2c0.1-0.1,2.8-1.9,7.2-5.4c1-0.8,1.2-2.4,0.4-3.4C583.6,631.6,582.1,631.4,581.1,632.3z"/>
				<path class="st21" d="M637.8,620.3c-1.1,1.3-2.3,2.6-3.5,3.9c-0.9,1-0.8,2.5,0.2,3.4c0.7,0.7,1.7,0.8,2.6,0.4
					c0.3-0.1,0.6-0.3,0.9-0.6c1.2-1.3,2.4-2.7,3.6-4c0.9-1,0.8-2.5-0.2-3.4C640.2,619.2,638.7,619.3,637.8,620.3z"/>
				<path class="st21" d="M655.3,597.9c-3.6,5.2-7.5,10.4-11.6,15.5c-0.8,1-0.7,2.6,0.3,3.4c0.7,0.6,1.7,0.7,2.5,0.4
					c0.4-0.1,0.7-0.4,0.9-0.7c4.2-5.2,8.2-10.5,11.9-15.8c0.8-1.1,0.5-2.6-0.6-3.4C657.5,596.6,656,596.8,655.3,597.9z"/>
			</g>
		</g>
		<g>
			<path class="st20" d="M596.6,691.7c-5.6-5.8-15.6-8.1-23.3,0.3c0,0-0.1,0-0.1,0.1c-23.1,23.5-56.7,37-94.8,38
				c-11.5,0.3-22.9-0.8-34-3.3c-1.4-0.3-2.7,0.6-3,1.9c-0.3,1.4,0.6,2.7,1.9,3c11.5,2.6,23.4,3.8,35.2,3.4c7.9-0.2,15.5-1,23-2.2
				c0.1,0,0.1,0,0.1,0c5.5-0.9,7.4-0.6,8.2,2.5c0.7,2.7-0.9,4.1-3.6,4.7c-7.7,1.4-15.4,2.3-23.3,2.6c-1.4,0.1-2.5,1.3-2.4,2.7
				c0.1,1.4,1.2,2.5,2.6,2.4c0,0,0,0,0,0c18-0.8,35.5-4.3,52.1-10.3c0,0,0.1,0,0.1-0.1c3-1.1,7.5-3.1,8.9-0.3
				c0.8,1.5,0.8,2.8-1.6,4.3c-2.6,1.1-5.1,2.1-7.7,3c-1.3,0.5-2,1.9-1.5,3.3c0.4,1.1,1.4,1.7,2.5,1.7c0.3,0,0.5-0.1,0.8-0.2
				C607.3,723.9,602.5,697.8,596.6,691.7z M549.2,738.7c-0.5,0.3-1.1,0.5-1.6,0.7L549.2,738.7z"/>
			<g>
				<path class="st21" d="M590,698c-3.6-3.7-9.9-4.8-14.9,1.4c-5.9,7.4-19.4,16.2-24.9,19.2c-0.6,0.3-0.8,1.1-0.5,1.7
					c0.2,0.4,0.7,0.7,1.2,0.7c0.2,0,0.4-0.1,0.6-0.2c5.1-2.8,10.1-6,14.6-9.4c1.6-1,3.8-1.6,5.3-0.2c1.7,1.6,1.4,3.7,0,4.8
					c-0.6,0.5-1.2,1-1.8,1.4c-0.6,0.4-0.7,1.2-0.3,1.8c0.3,0.3,0.7,0.5,1.1,0.5c0.3,0,0.5-0.1,0.7-0.3c1.5-1.1,3-2.3,4.5-3.5
					c0.2-0.1,0.4-0.2,0.6-0.4c2-1.6,3.5-2.3,4.5-1.3c1,0.9,1.2,2,0,3.2c-1.1,1-2.2,1.9-3.5,3c-0.5,0.4-0.6,1.2-0.2,1.8
					c0.3,0.3,0.6,0.5,1,0.5c0.3,0,0.5-0.1,0.8-0.3C596.8,707.9,593,701.2,590,698z"/>
				<path class="st21" d="M562.1,725.4c0.2,0,0.5-0.1,0.7-0.2c1.3-0.8,2.5-1.7,3.8-2.5c0.6-0.4,0.7-1.2,0.3-1.8
					c-0.4-0.6-1.2-0.7-1.8-0.3c-1.2,0.9-2.5,1.7-3.7,2.5c-0.6,0.4-0.8,1.2-0.4,1.8C561.3,725.3,561.7,725.5,562.1,725.4z"/>
				<path class="st21" d="M557.1,727.2c-0.3-0.6-1.1-0.8-1.7-0.5c-2.3,1.3-4.2,2.3-5.9,3.2c-1,0.5-1.8,1-2.6,1.4
					c-0.6,0.3-0.8,1.1-0.5,1.7c0.2,0.4,0.7,0.7,1.2,0.7c0.2,0,0.4-0.1,0.6-0.2c0.7-0.4,1.6-0.9,2.6-1.4c1.7-0.9,3.7-1.9,6-3.3
					C557.3,728.6,557.5,727.8,557.1,727.2z"/>
				<path class="st21" d="M542,722.8c-3.2,1.5-6.4,2.8-9.6,4c-0.7,0.2-1,1-0.8,1.6c0.2,0.5,0.7,0.8,1.2,0.8c0.1,0,0.3,0,0.4-0.1
					c3.3-1.2,6.6-2.6,9.8-4.1c0.6-0.3,0.9-1.1,0.6-1.7C543.4,722.8,542.6,722.5,542,722.8z"/>
				<path class="st21" d="M526.7,728.8c-2.7,0.9-4.3,1.2-4.3,1.2c-0.7,0.2-1.1,0.8-1,1.5c0.1,0.6,0.7,1,1.3,1c0.1,0,0.2,0,0.3,0
					c0.1,0,1.7-0.4,4.5-1.3c0.7-0.2,1-0.9,0.8-1.6C528.1,728.9,527.4,728.6,526.7,728.8z"/>
				<path class="st21" d="M556.9,733.6c-0.8,0.4-1.6,0.8-2.5,1.3c-0.6,0.3-0.9,1.1-0.6,1.7c0.2,0.5,0.7,0.7,1.2,0.7
					c0.2,0,0.4,0,0.5-0.1c0.9-0.4,1.7-0.9,2.5-1.3c0.6-0.3,0.9-1.1,0.5-1.7C558.3,733.5,557.5,733.3,556.9,733.6z"/>
				<path class="st21" d="M569.7,726c-2.7,1.9-5.7,3.7-8.7,5.4c-0.6,0.3-0.8,1.1-0.5,1.7c0.2,0.4,0.7,0.7,1.1,0.6
					c0.2,0,0.4-0.1,0.6-0.2c3.1-1.7,6-3.6,8.8-5.5c0.6-0.4,0.7-1.2,0.3-1.8C571.1,725.7,570.3,725.6,569.7,726z"/>
			</g>
		</g>
		<g>
			<path class="st20" d="M411.3,719.6c-0.3-6.2-4.9-12.7-13.7-11.7c0,0,0,0-0.1,0c-25.4,1.8-51.8-7.5-74.4-26.4
				c-6.8-5.7-12.9-12.2-18-19.3c-0.6-0.9-1.9-1.1-2.8-0.4c-0.9,0.6-1.1,1.9-0.4,2.8c5.3,7.4,11.6,14.1,18.7,20
				c4.7,3.9,9.5,7.4,14.5,10.5c0,0,0.1,0.1,0.1,0.1c3.6,2.3,4.6,3.4,3.5,5.6c-1,1.9-2.6,1.9-4.5,0.9c-5.2-3.1-10.1-6.6-14.9-10.4
				c-0.8-0.7-2.1-0.5-2.8,0.3c-0.7,0.8-0.6,2.1,0.3,2.7c0,0,0,0,0,0c10.8,8.7,22.8,15.7,35.5,20.6c0,0,0.1,0,0.1,0
				c2.3,0.9,5.9,2,5.3,4.4c-0.3,1.3-0.9,2-3.1,1.6c-2-0.7-4.1-1.4-6.1-2.2c-1-0.4-2.2,0.1-2.6,1.1c-0.3,0.8-0.1,1.7,0.6,2.2
				c0.2,0.1,0.3,0.2,0.5,0.3C401,743.8,411.6,726.2,411.3,719.6z M359.8,722.6c-0.4-0.1-0.9-0.3-1.3-0.4L359.8,722.6z"/>
			<g>
				<path class="st21" d="M404.2,719.9c-0.2-4-3.3-7.9-9.4-6.8c-7.2,1.3-19.6-0.6-24.3-1.6c-0.5-0.1-1.1,0.2-1.2,0.7
					c-0.1,0.4,0.1,0.7,0.3,1c0.1,0.1,0.3,0.2,0.4,0.2c4.4,1,8.9,1.7,13.3,2c1.4,0.2,3,1.1,3.2,2.6c0.1,1.8-1.1,2.8-2.4,2.8
					c-0.6,0-1.2-0.1-1.8-0.1c-0.5,0-1,0.4-1.1,0.9c0,0.3,0.1,0.6,0.4,0.8c0.2,0.1,0.3,0.2,0.6,0.2c1.4,0.1,2.9,0.2,4.4,0.3
					c0.2,0,0.4,0.1,0.6,0.1c2,0.1,3.2,0.4,3.3,1.6c0.1,1-0.3,1.7-1.6,1.8c-1.1,0-2.3,0-3.6-0.1c-0.5,0-1,0.4-1,0.9
					c0,0.3,0.1,0.6,0.4,0.8c0.2,0.1,0.4,0.2,0.6,0.2C403.2,729.1,404.4,723.3,404.2,719.9z"/>
				<path class="st21" d="M374,721.6c0.1,0.1,0.3,0.2,0.5,0.2c1.1,0.2,2.3,0.3,3.5,0.5c0.5,0.1,1-0.3,1.1-0.9c0.1-0.5-0.3-1-0.9-1.1
					c-1.2-0.1-2.3-0.3-3.4-0.5c-0.5-0.1-1,0.3-1.1,0.8C373.6,721,373.8,721.3,374,721.6z"/>
				<path class="st21" d="M370.2,720c0.1-0.5-0.2-1.1-0.8-1.2c-2-0.4-3.6-0.8-5.1-1.2c-0.8-0.2-1.6-0.4-2.2-0.5
					c-0.5-0.1-1.1,0.2-1.2,0.7c-0.1,0.4,0.1,0.7,0.3,1c0.1,0.1,0.3,0.2,0.4,0.2c0.6,0.1,1.4,0.3,2.2,0.5c1.4,0.3,3.1,0.8,5.2,1.2
					C369.6,720.9,370.1,720.6,370.2,720z"/>
				<path class="st21" d="M363.7,709.7c-2.6-0.8-5.2-1.6-7.6-2.6c-0.5-0.2-1.1,0.1-1.3,0.6c-0.2,0.4,0,0.8,0.3,1.1
					c0.1,0.1,0.2,0.1,0.3,0.2c2.5,1,5.1,1.9,7.8,2.6c0.5,0.2,1.1-0.1,1.2-0.7C364.5,710.4,364.2,709.9,363.7,709.7z"/>
				<path class="st21" d="M351.8,705.4c-2-0.9-3.1-1.5-3.1-1.5c-0.5-0.3-1.1-0.1-1.3,0.4c-0.2,0.4-0.1,0.9,0.2,1.2
					c0,0,0.1,0.1,0.2,0.1c0,0,1.2,0.6,3.3,1.6c0.5,0.2,1.1,0,1.3-0.5C352.5,706.2,352.3,705.6,351.8,705.4z"/>
				<path class="st21" d="M366.8,723.6c-0.7-0.2-1.4-0.3-2.1-0.5c-0.5-0.1-1.1,0.2-1.2,0.7c-0.1,0.4,0,0.8,0.3,1
					c0.1,0.1,0.2,0.2,0.4,0.2c0.7,0.2,1.4,0.4,2.1,0.5c0.5,0.1,1.1-0.2,1.2-0.7C367.7,724.3,367.3,723.8,366.8,723.6z"/>
				<path class="st21" d="M378.2,725.7c-2.5-0.3-5.2-0.8-7.8-1.3c-0.5-0.1-1.1,0.2-1.2,0.8c-0.1,0.4,0.1,0.7,0.3,1
					c0.1,0.1,0.3,0.2,0.4,0.2c2.7,0.6,5.3,1,7.9,1.3c0.5,0.1,1-0.3,1.1-0.9C379.1,726.3,378.7,725.8,378.2,725.7z"/>
			</g>
		</g>
		<g>
			<g>
				<g>
					<path class="st22" d="M664.2,444.5c0,0-23.3-3.3-36.2,15.9c-8.9,13.3-11.9,74.8-3.5,88c0,0,11.2-71,36.5-69.6L664.2,444.5z"/>
					<path class="st23" d="M660.4,467.1l1.6,0.6l-1.1,11.1c-25.2-1.4-36.5,69.6-36.5,69.6S623.8,471.4,660.4,467.1z"/>
				</g>
				<g>
					<path class="st22" d="M733.4,470.3c0,0,20.1,12.9,18.8,36.4c-1,16.3-28.9,57.1-43.3,61.9c0,0,27.2-53.7,6.7-69.4L733.4,470.3z"
						/>
					<path class="st23" d="M723,490.4l-1.6-0.6l-5.8,9.4c20.4,15.7-6.7,69.4-6.7,69.4S747.4,520.7,723,490.4z"/>
				</g>
			</g>
			<g>
				<g>
					<g>
						<path class="st24" d="M703.9,511.2c-7.4,0.6-19.6-2.4-22.3-3.1c-2.5-1.3-13.8-7-19.2-12.4l-4.3,12.8c0,0,6.9,6.4,19.1,10.9
							l0,0c0.2,0.1,0.4,0.1,0.5,0.2c0.2,0.1,0.4,0.1,0.5,0.2l0,0c12.1,4.5,21.3,4.2,21.3,4.2L703.9,511.2z"/>
						<path class="st24" d="M699.6,524l4.3-12.8c-1,0.1-2.1,0.1-3.3,0.1l-10.2,1.3l-6.4,9.2C693.2,524.2,699.6,524,699.6,524z"/>
					</g>
					<g>
						<g>
							<path class="st25" d="M766.9,379c-0.1-38.2-20.6-64.5-20.6-64.5s-31.5,6.9-54.4,36.6c-16,20.7-24.9,44.5-29.3,87.6
								c-4.4,43.1-5.2,56.4-5.2,56.4s7.4,8.8,22.7,14.5c15.3,5.7,28,4.4,28,4.4s7.3-10.9,29.5-47.4C759.8,430.2,767,405.7,766.9,379
								z"/>
							<g>
								<polygon class="st26" points="750.3,361.6 750.3,361.6 750.3,361.6 								"/>
							</g>
							<g>
								<path class="st24" d="M700.4,449c-23.4-8.7-36-17.6-36.9-18.2l1.2-9c0.3,0.2,34.7,23.7,81.1,30.6l-4.2,7.5
									C725.3,457.4,712.4,453.5,700.4,449z"/>
							</g>
							<g>
								<path class="st24" d="M704.5,436.6c-23.4-8.7-38.3-18.4-39.2-19l0.9-5.2c0.3,0.2,37.7,24.5,84.1,31.3l-2.3,4.4
									C731.8,445.7,716.5,441.1,704.5,436.6z"/>
							</g>
							<g>
								<path class="st24" d="M766.6,387.8c-41-28.5-79.4-29.7-79.7-29.7l3.1-4.4c1.4,0,38.2,2.2,76.9,28.5L766.6,387.8z"/>
							</g>
						</g>
						<g>
							<path class="st22" d="M766.6,371.2c-2.6-34-20.3-56.8-20.3-56.8s-27.5,6.1-49.7,31C696.7,345.4,725.9,344.4,766.6,371.2z"/>
							<g>
								<polygon class="st27" points="750.3,361.6 750.3,361.6 750.3,361.6 								"/>
							</g>
						</g>
					</g>
				</g>
				<g>
					<path class="st22" d="M699.7,457.7c0,0-47.1,58-40.6,127.3C659.1,585,711.8,502.4,699.7,457.7z"/>
					<path class="st23" d="M659.1,585c0,0,52.7-82.7,40.6-127.3C699.7,457.7,684.2,548.1,659.1,585z"/>
				</g>
			</g>
		</g>
		<g>
			<path class="st22" d="M695.6,368c0-1.9-1.4-3.4-3.2-3.4c-1.8,0-3.2,1.5-3.2,3.4c0,1.9,1.4,3.4,3.2,3.4
				C694.2,371.3,695.6,369.8,695.6,368z"/>
			<path class="st22" d="M680.8,406.4c0-1.9-1.4-3.4-3.2-3.4c-1.8,0-3.2,1.5-3.2,3.4c0,1.9,1.4,3.4,3.2,3.4
				C679.4,409.8,680.8,408.3,680.8,406.4z"/>
			<path class="st22" d="M688.9,379.6c0-2.7-2.1-4.9-4.6-4.9c-2.6,0-4.6,2.2-4.6,4.9c0,2.7,2.1,4.9,4.6,4.9
				C686.9,384.5,688.9,382.3,688.9,379.6z"/>
			<path class="st22" d="M684.3,392.4c0-2.7-2.1-4.9-4.6-4.9c-2.6,0-4.6,2.2-4.6,4.9c0,2.7,2.1,4.9,4.6,4.9
				C682.2,397.3,684.3,395.1,684.3,392.4z"/>
		</g>
		<g>
			<path class="st22" d="M741.5,430.7c0.2,1.8,1.7,3.2,3.5,3c1.7-0.2,3-1.8,2.9-3.7c-0.2-1.8-1.7-3.2-3.5-3
				C742.6,427.2,741.3,428.9,741.5,430.7z"/>
			<path class="st22" d="M752.7,391c0.2,1.8,1.7,3.2,3.5,3c1.7-0.2,3-1.8,2.9-3.7c-0.2-1.8-1.7-3.2-3.5-3
				C753.8,387.5,752.5,389.1,752.7,391z"/>
			<path class="st22" d="M747.1,418.5c0.2,2.7,2.5,4.7,5,4.4c2.5-0.3,4.4-2.6,4.2-5.3c-0.2-2.7-2.5-4.7-5-4.4
				C748.7,413.4,746.8,415.8,747.1,418.5z"/>
			<path class="st22" d="M750.5,405.3c0.2,2.7,2.5,4.7,5,4.4c2.5-0.3,4.4-2.6,4.2-5.3c-0.2-2.7-2.5-4.7-5-4.4
				C752.1,400.2,750.3,402.6,750.5,405.3z"/>
		</g>
		<path class="st22" d="M707.7,457c0,0,13.2,6.8,27.2,5.9L706,511.6l-8.2-0.9C697.7,510.7,711.8,501.2,707.7,457z"/>
		<path class="st22" d="M692,452.1c0,0-14.3-3.4-24.7-13.4l-6.4,57l6.9,4.8C667.9,500.5,662.6,483.8,692,452.1z"/>
		<g>
			<g>
				<path class="st28" d="M737.4,416.4c-9,10.8-25.1,12.2-35.9,3.2c-10.8-9-12.2-25.1-3.2-35.9c9-10.8,25.1-12.2,35.9-3.2
					C745,389.5,746.4,405.6,737.4,416.4z"/>
				<path class="st29" d="M733.1,384.6c-0.6,0.7-1.6,0.8-2.3,0.2c-0.7-0.6-0.8-1.6-0.2-2.3c0.6-0.7,1.6-0.8,2.3-0.2
					C733.6,382.9,733.7,383.9,733.1,384.6z"/>
				<path class="st29" d="M717.7,379.8c-0.6,0.7-1.6,0.8-2.3,0.2c-0.7-0.6-0.8-1.6-0.2-2.3c0.6-0.7,1.6-0.8,2.3-0.2
					C718.2,378,718.3,379.1,717.7,379.8z"/>
				<path class="st29" d="M740.8,399.1c-0.6,0.7-1.6,0.8-2.3,0.2c-0.7-0.6-0.8-1.6-0.2-2.3c0.6-0.7,1.6-0.8,2.3-0.2
					C741.3,397.4,741.4,398.4,740.8,399.1z"/>
				<path class="st29" d="M721.1,422.2c-0.6,0.7-1.6,0.8-2.3,0.2c-0.7-0.6-0.8-1.6-0.2-2.3c0.6-0.7,1.6-0.8,2.3-0.2
					C721.5,420.5,721.6,421.5,721.1,422.2z"/>
				<path class="st29" d="M697.4,402.4c-0.6,0.7-1.6,0.8-2.3,0.2c-0.7-0.6-0.8-1.6-0.2-2.3c0.6-0.7,1.6-0.8,2.3-0.2
					C697.9,400.7,698,401.7,697.4,402.4z"/>
				<path class="st29" d="M705.3,417.7c-0.6,0.7-1.6,0.8-2.3,0.2c-0.7-0.6-0.8-1.6-0.2-2.3c0.6-0.7,1.6-0.8,2.3-0.2
					C705.8,415.9,705.9,417,705.3,417.7z"/>
				<path class="st29" d="M703,386.7c-0.6,0.7-1.6,0.8-2.3,0.2c-0.7-0.6-0.8-1.6-0.2-2.3c0.6-0.7,1.6-0.8,2.3-0.2
					C703.5,384.9,703.6,386,703,386.7z"/>
				<path class="st29" d="M735.6,414.9c-0.6,0.7-1.6,0.8-2.3,0.2c-0.7-0.6-0.8-1.6-0.2-2.3c0.6-0.7,1.6-0.8,2.3-0.2
					C736.1,413.2,736.2,414.2,735.6,414.9z"/>
			</g>
			<g>
				<path class="st22" d="M731.4,411.4c-6.3,7.5-17.4,8.5-24.9,2.2c-7.5-6.2-8.5-17.4-2.2-24.9c6.3-7.5,17.4-8.5,24.9-2.2
					C736.7,392.8,737.7,403.9,731.4,411.4z"/>
				<path class="st30" d="M714.3,389.8c0.1,0.9-0.7,1.8-1.7,1.9c-1,0.1-1.9-0.6-2-1.5c-0.1-0.9,0.7-1.8,1.7-1.9
					C713.3,388.2,714.2,388.9,714.3,389.8z"/>
				<path class="st23" d="M707.9,406.5l-2.7,3.9c0,0,12.1,13.3,25.4-1l-3.9-3.2C726.7,406.1,719,416.2,707.9,406.5z"/>
				
					<rect x="728.8" y="403.6" transform="matrix(0.6411 -0.7675 0.7675 0.6411 -49.6667 706.0428)" class="st23" width="2.5" height="5"/>
				<path class="st30" d="M725.6,390.3c-0.6,2.2-3.2,3.4-5.8,2.7c-2.6-0.7-4.2-3.1-3.6-5.4c0.6-2.2,3.2-3.4,5.8-2.7
					C724.7,385.7,726.3,388.1,725.6,390.3z"/>
			</g>
		</g>
	</g>
	<g>
		<g>
			<path class="st20" d="M161.1,359.8c13.8,6.4,33.2,3.7,41-16.5c0-0.1,0.1-0.1,0.1-0.2C227,285.8,277.4,238.9,344,211.1
				c20.1-8.4,41.1-14.2,62.4-17.3c2.6-0.4,4.5-2.8,4.1-5.5c-0.4-2.6-2.8-4.5-5.5-4.1c-22.1,3.3-43.9,9.3-64.7,18
				c-13.8,5.7-26.9,12.3-39.2,19.6c-0.1,0-0.2,0.1-0.2,0.1c-9.1,5.3-12.8,6.2-16.3,1.2c-3-4.3-1.2-7.9,3.1-10.8
				c12.6-7.7,25.8-14.6,39.5-20.6c2.4-1.1,3.6-3.9,2.5-6.4c-1.1-2.4-3.9-3.5-6.3-2.5c0,0-0.1,0-0.1,0
				c-31.3,13.7-59.9,31.8-85.1,53.9c-0.1,0.1-0.1,0.1-0.2,0.2c-4.5,4-11.1,10.5-15.6,6.6c-2.5-2.2-3.4-4.4,0-8.6
				c3.8-3.7,7.7-7.2,11.6-10.7c2-1.8,2.2-4.8,0.5-6.8c-1.4-1.6-3.6-2.1-5.5-1.3c-0.5,0.2-0.9,0.5-1.3,0.8
				C120.2,310,146.4,353,161.1,359.8z M212.8,244.3c0.8-0.8,1.6-1.6,2.4-2.4L212.8,244.3z"/>
			<g>
				<path class="st21" d="M168.4,344.1c8.9,4.1,20.9,1.8,25.5-12.7c5.4-17,23.4-41.9,31-51c0.9-1,0.7-2.5-0.3-3.4
					c-0.7-0.6-1.7-0.7-2.5-0.4c-0.3,0.1-0.7,0.4-0.9,0.7c-7.2,8.5-13.7,17.5-19.5,26.6c-2.1,2.9-5.7,5.4-9.2,4
					c-4.1-1.7-4.9-5.6-3.3-8.4c0.8-1.3,1.5-2.5,2.3-3.8c0.7-1.1,0.4-2.6-0.8-3.3c-0.7-0.4-1.5-0.5-2.2-0.2c-0.4,0.2-0.8,0.5-1.1,0.9
					c-1.9,3-3.7,6.1-5.5,9.2c-0.3,0.3-0.6,0.7-0.8,1.1c-2.5,4.2-4.6,6.4-7.1,5.4c-2.3-0.9-3.4-2.7-2.1-5.7c1.2-2.4,2.6-5,4.2-7.7
					c0.7-1.2,0.3-2.6-0.9-3.3c-0.7-0.4-1.5-0.4-2.1-0.1c-0.5,0.2-0.9,0.5-1.2,1C149.6,331.3,160.9,340.6,168.4,344.1z"/>
				<path class="st21" d="M199.1,276.5c-0.4,0.2-0.7,0.4-1,0.8c-1.7,2.3-3.4,4.7-5,7.1c-0.8,1.1-0.5,2.6,0.6,3.4
					c1.1,0.8,2.6,0.5,3.4-0.6c1.6-2.4,3.3-4.7,4.9-7c0.8-1.1,0.6-2.6-0.5-3.4C200.7,276.2,199.8,276.2,199.1,276.5z"/>
				<path class="st21" d="M206.7,269.9c1,0.8,2.6,0.7,3.4-0.3c3.2-3.9,5.9-7,8.3-9.8c1.4-1.6,2.6-3,3.7-4.2c0.9-1,0.7-2.5-0.3-3.4
					c-0.7-0.6-1.7-0.7-2.5-0.4c-0.3,0.1-0.7,0.4-0.9,0.7c-1,1.2-2.2,2.6-3.6,4.2c-2.3,2.7-5.2,6-8.4,9.9
					C205.5,267.6,205.7,269.1,206.7,269.9z"/>
				<path class="st21" d="M236.5,267.4c4.6-4.8,9.4-9.4,14.3-13.7c1-0.9,1.1-2.4,0.2-3.4c-0.7-0.8-1.8-1-2.7-0.6
					c-0.2,0.1-0.5,0.2-0.7,0.4c-5,4.4-9.9,9.1-14.5,13.9c-0.9,1-0.9,2.5,0.1,3.4C234,268.4,235.6,268.4,236.5,267.4z"/>
				<path class="st21" d="M259.5,246.4c4.2-3.4,6.8-5.1,6.9-5.1c1.1-0.7,1.4-2.2,0.7-3.4c-0.7-1-1.9-1.3-2.9-0.9
					c-0.1,0.1-0.3,0.1-0.4,0.2c-0.1,0.1-2.8,1.9-7.2,5.4c-1,0.8-1.2,2.4-0.4,3.4C256.9,247.1,258.4,247.3,259.5,246.4z"/>
				<path class="st21" d="M202.8,258.4c1.1-1.3,2.3-2.6,3.5-3.9c0.9-1,0.8-2.5-0.2-3.4c-0.7-0.7-1.7-0.8-2.6-0.4
					c-0.3,0.1-0.6,0.3-0.9,0.6c-1.2,1.3-2.4,2.7-3.6,4c-0.9,1-0.8,2.5,0.2,3.4C200.3,259.5,201.9,259.4,202.8,258.4z"/>
				<path class="st21" d="M185.2,280.8c3.6-5.2,7.5-10.4,11.6-15.5c0.8-1,0.7-2.6-0.3-3.4c-0.7-0.6-1.7-0.7-2.5-0.4
					c-0.4,0.1-0.7,0.4-0.9,0.7c-4.2,5.2-8.2,10.5-11.9,15.8c-0.8,1.1-0.5,2.6,0.6,3.4C183,282.2,184.5,281.9,185.2,280.8z"/>
			</g>
		</g>
		<g>
			<path class="st20" d="M244,187c5.6,5.8,15.6,8.1,23.3-0.3c0,0,0.1,0,0.1-0.1c23.1-23.5,56.7-37,94.8-38c11.5-0.3,22.9,0.8,34,3.3
				c1.4,0.3,2.7-0.6,3-1.9c0.3-1.4-0.6-2.7-1.9-3c-11.5-2.6-23.4-3.8-35.2-3.4c-7.9,0.2-15.5,1-23,2.2c-0.1,0-0.1,0-0.1,0
				c-5.5,0.9-7.4,0.6-8.2-2.5c-0.7-2.7,0.9-4.1,3.6-4.7c7.7-1.4,15.4-2.3,23.3-2.6c1.4-0.1,2.5-1.3,2.4-2.7
				c-0.1-1.4-1.2-2.5-2.6-2.4c0,0,0,0,0,0c-18,0.8-35.5,4.3-52.1,10.3c0,0-0.1,0-0.1,0.1c-3,1.1-7.5,3.1-8.9,0.3
				c-0.8-1.5-0.8-2.8,1.6-4.3c2.6-1.1,5.1-2.1,7.7-3c1.3-0.5,2-1.9,1.5-3.3c-0.4-1.1-1.4-1.7-2.5-1.7c-0.3,0-0.5,0.1-0.8,0.2
				C233.3,154.8,238,180.9,244,187z M291.3,140c0.5-0.3,1.1-0.5,1.6-0.7L291.3,140z"/>
			<g>
				<path class="st21" d="M250.5,180.7c3.6,3.7,9.9,4.8,14.9-1.4c5.9-7.4,19.4-16.2,24.9-19.2c0.6-0.3,0.8-1.1,0.5-1.7
					c-0.2-0.4-0.7-0.7-1.2-0.7c-0.2,0-0.4,0.1-0.6,0.2c-5.1,2.8-10.1,6-14.6,9.4c-1.6,1-3.8,1.6-5.3,0.2c-1.7-1.6-1.4-3.7,0-4.8
					c0.6-0.5,1.2-1,1.8-1.4c0.6-0.4,0.7-1.2,0.3-1.8c-0.3-0.3-0.7-0.5-1.1-0.5c-0.3,0-0.5,0.1-0.7,0.3c-1.5,1.1-3,2.3-4.5,3.5
					c-0.2,0.1-0.4,0.2-0.6,0.4c-2,1.6-3.5,2.3-4.5,1.3c-1-0.9-1.2-2,0-3.2c1.1-1,2.2-1.9,3.5-3c0.5-0.4,0.6-1.2,0.2-1.8
					c-0.3-0.3-0.6-0.5-1-0.5c-0.3,0-0.5,0.1-0.8,0.3C243.7,170.9,247.5,177.5,250.5,180.7z"/>
				<path class="st21" d="M278.4,153.3c-0.2,0-0.5,0.1-0.7,0.2c-1.3,0.8-2.5,1.7-3.8,2.5c-0.6,0.4-0.7,1.2-0.3,1.8
					c0.4,0.6,1.2,0.7,1.8,0.3c1.2-0.9,2.5-1.7,3.7-2.5c0.6-0.4,0.8-1.2,0.4-1.8C279.3,153.5,278.8,153.2,278.4,153.3z"/>
				<path class="st21" d="M283.4,151.5c0.3,0.6,1.1,0.8,1.7,0.5c2.3-1.3,4.2-2.3,5.9-3.2c1-0.5,1.8-1,2.6-1.4
					c0.6-0.3,0.8-1.1,0.5-1.7c-0.2-0.4-0.7-0.7-1.2-0.7c-0.2,0-0.4,0.1-0.6,0.2c-0.7,0.4-1.6,0.9-2.6,1.4c-1.7,0.9-3.7,1.9-6,3.3
					C283.3,150.1,283.1,150.9,283.4,151.5z"/>
				<path class="st21" d="M298.5,155.9c3.2-1.5,6.4-2.8,9.6-4c0.7-0.2,1-1,0.8-1.6c-0.2-0.5-0.7-0.8-1.2-0.8c-0.1,0-0.3,0-0.4,0.1
					c-3.3,1.2-6.6,2.6-9.8,4.1c-0.6,0.3-0.9,1.1-0.6,1.7C297.1,155.9,297.9,156.2,298.5,155.9z"/>
				<path class="st21" d="M313.8,149.9c2.7-0.9,4.3-1.2,4.3-1.2c0.7-0.2,1.1-0.8,1-1.5c-0.1-0.6-0.7-1-1.3-1c-0.1,0-0.2,0-0.3,0
					c-0.1,0-1.7,0.4-4.5,1.3c-0.7,0.2-1,0.9-0.8,1.6C312.4,149.8,313.1,150.1,313.8,149.9z"/>
				<path class="st21" d="M283.6,145.1c0.8-0.4,1.6-0.8,2.5-1.3c0.6-0.3,0.9-1.1,0.6-1.7c-0.2-0.5-0.7-0.7-1.2-0.7
					c-0.2,0-0.4,0-0.5,0.1c-0.9,0.4-1.7,0.9-2.5,1.3c-0.6,0.3-0.9,1.1-0.5,1.7C282.3,145.2,283,145.4,283.6,145.1z"/>
				<path class="st21" d="M270.8,152.8c2.7-1.9,5.7-3.7,8.7-5.4c0.6-0.3,0.8-1.1,0.5-1.7c-0.2-0.4-0.7-0.7-1.1-0.6
					c-0.2,0-0.4,0.1-0.6,0.2c-3.1,1.7-6,3.6-8.8,5.5c-0.6,0.4-0.7,1.2-0.3,1.8C269.4,153,270.2,153.1,270.8,152.8z"/>
			</g>
		</g>
		<g>
			<path class="st20" d="M429.2,159.1c0.3,6.2,4.9,12.7,13.7,11.7c0,0,0,0,0.1,0c25.4-1.8,51.8,7.5,74.4,26.4
				c6.8,5.7,12.9,12.2,18,19.3c0.6,0.9,1.9,1.1,2.8,0.4c0.9-0.6,1.1-1.9,0.4-2.8c-5.3-7.4-11.6-14.1-18.7-20
				c-4.7-3.9-9.5-7.4-14.5-10.5c0,0-0.1-0.1-0.1-0.1c-3.6-2.3-4.6-3.4-3.5-5.6c1-1.9,2.6-1.9,4.5-0.9c5.2,3.1,10.1,6.6,14.9,10.4
				c0.8,0.7,2.1,0.5,2.8-0.3c0.7-0.8,0.6-2.1-0.3-2.7c0,0,0,0,0,0c-10.8-8.7-22.8-15.7-35.5-20.6c0,0-0.1,0-0.1,0
				c-2.3-0.9-5.9-2-5.3-4.4c0.3-1.3,0.9-2,3.1-1.6c2,0.7,4.1,1.4,6.1,2.2c1,0.4,2.2-0.1,2.6-1.1c0.3-0.8,0.1-1.7-0.6-2.2
				c-0.2-0.1-0.3-0.2-0.5-0.3C439.5,134.9,428.9,152.5,429.2,159.1z M480.7,156.1c0.4,0.1,0.9,0.3,1.3,0.4L480.7,156.1z"/>
			<g>
				<path class="st21" d="M436.3,158.8c0.2,4,3.3,7.9,9.4,6.8c7.2-1.3,19.6,0.6,24.3,1.6c0.5,0.1,1.1-0.2,1.2-0.7
					c0.1-0.4-0.1-0.7-0.3-1c-0.1-0.1-0.3-0.2-0.4-0.2c-4.4-1-8.9-1.7-13.3-2c-1.4-0.2-3-1.1-3.2-2.6c-0.1-1.8,1.1-2.8,2.4-2.8
					c0.6,0,1.2,0.1,1.8,0.1c0.5,0,1-0.4,1.1-0.9c0-0.3-0.1-0.6-0.4-0.8c-0.2-0.1-0.3-0.2-0.6-0.2c-1.4-0.1-2.9-0.2-4.4-0.3
					c-0.2,0-0.4-0.1-0.6-0.1c-2-0.1-3.2-0.4-3.3-1.6c-0.1-1,0.3-1.7,1.6-1.8c1.1,0,2.3,0,3.6,0.1c0.5,0,1-0.4,1-0.9
					c0-0.3-0.1-0.6-0.4-0.8c-0.2-0.1-0.4-0.2-0.6-0.2C437.3,149.6,436.1,155.4,436.3,158.8z"/>
				<path class="st21" d="M466.5,157.2c-0.1-0.1-0.3-0.2-0.5-0.2c-1.1-0.2-2.3-0.3-3.5-0.5c-0.5-0.1-1,0.3-1.1,0.9
					c-0.1,0.5,0.3,1,0.9,1.1c1.2,0.1,2.3,0.3,3.4,0.5c0.5,0.1,1-0.3,1.1-0.8C466.9,157.7,466.7,157.4,466.5,157.2z"/>
				<path class="st21" d="M470.3,158.7c-0.1,0.5,0.2,1.1,0.8,1.2c2,0.4,3.6,0.8,5.1,1.2c0.8,0.2,1.6,0.4,2.2,0.5
					c0.5,0.1,1.1-0.2,1.2-0.7c0.1-0.4-0.1-0.7-0.3-1c-0.1-0.1-0.3-0.2-0.4-0.2c-0.6-0.1-1.4-0.3-2.2-0.5c-1.4-0.3-3.1-0.8-5.2-1.2
					C470.9,157.8,470.4,158.1,470.3,158.7z"/>
				<path class="st21" d="M476.8,169c2.6,0.8,5.2,1.6,7.6,2.6c0.5,0.2,1.1-0.1,1.3-0.6c0.2-0.4,0-0.8-0.3-1.1
					c-0.1-0.1-0.2-0.1-0.3-0.2c-2.5-1-5.1-1.9-7.8-2.6c-0.5-0.2-1.1,0.1-1.2,0.7C476,168.3,476.3,168.8,476.8,169z"/>
				<path class="st21" d="M488.7,173.3c2,0.9,3.1,1.5,3.1,1.5c0.5,0.3,1.1,0.1,1.3-0.4c0.2-0.4,0.1-0.9-0.2-1.2c0,0-0.1-0.1-0.2-0.1
					c0,0-1.2-0.6-3.3-1.6c-0.5-0.2-1.1,0-1.3,0.5C488,172.5,488.2,173.1,488.7,173.3z"/>
				<path class="st21" d="M473.7,155.1c0.7,0.2,1.4,0.3,2.1,0.5c0.5,0.1,1.1-0.2,1.2-0.7c0.1-0.4,0-0.8-0.3-1
					c-0.1-0.1-0.2-0.2-0.4-0.2c-0.7-0.2-1.4-0.4-2.1-0.5c-0.5-0.1-1.1,0.2-1.2,0.7C472.9,154.4,473.2,155,473.7,155.1z"/>
				<path class="st21" d="M462.3,153c2.5,0.3,5.2,0.8,7.8,1.3c0.5,0.1,1.1-0.2,1.2-0.8c0.1-0.4-0.1-0.7-0.3-1
					c-0.1-0.1-0.3-0.2-0.4-0.2c-2.7-0.6-5.3-1-7.9-1.3c-0.5-0.1-1,0.3-1.1,0.9C461.4,152.4,461.8,152.9,462.3,153z"/>
			</g>
		</g>
		<g>
			<g>
				<g>
					<path class="st31" d="M176.4,434.2c0,0,23.3,3.3,36.2-15.9c8.9-13.3,11.9-74.8,3.5-88c0,0-11.2,71-36.5,69.6L176.4,434.2z"/>
					<path class="st32" d="M180.1,411.7l-1.6-0.6l1.1-11.1c25.2,1.4,36.5-69.6,36.5-69.6S216.7,407.3,180.1,411.7z"/>
				</g>
				<g>
					<path class="st31" d="M107.1,408.4c0,0-20.1-12.9-18.8-36.4c1-16.3,28.9-57.1,43.3-61.9c0,0-27.2,53.7-6.7,69.4L107.1,408.4z"
						/>
					<path class="st32" d="M117.6,388.3l1.6,0.6l5.8-9.4c-20.4-15.7,6.7-69.4,6.7-69.4S93.2,358,117.6,388.3z"/>
				</g>
			</g>
			<g>
				<g>
					<g>
						<path class="st24" d="M136.6,367.5c7.4-0.6,19.6,2.4,22.3,3.1c2.5,1.3,13.8,7,19.2,12.4l4.3-12.8c0,0-6.9-6.4-19.1-10.9l0,0
							c-0.2-0.1-0.4-0.1-0.5-0.2c-0.2-0.1-0.4-0.1-0.5-0.2l0,0c-12.1-4.5-21.3-4.2-21.3-4.2L136.6,367.5z"/>
						<path class="st24" d="M140.9,354.7l-4.3,12.8c1-0.1,2.1-0.1,3.3-0.1l10.2-1.3l6.4-9.2C147.3,354.5,140.9,354.7,140.9,354.7z"
							/>
					</g>
					<g>
						<g>
							<path class="st25" d="M73.6,499.7c0.1,38.2,20.6,64.5,20.6,64.5s31.5-6.9,54.4-36.6c16-20.7,24.9-44.5,29.3-87.6
								c4.4-43.1,5.2-56.4,5.2-56.4s-7.4-8.8-22.7-14.5c-15.3-5.7-28-4.4-28-4.4s-7.3,10.9-29.5,47.4
								C80.7,448.5,73.5,473,73.6,499.7z"/>
							<g>
								<polygon class="st26" points="90.2,517.1 90.2,517.1 90.2,517.1 								"/>
							</g>
							<g>
								<path class="st24" d="M140.1,429.7c23.4,8.7,36,17.6,36.9,18.2l-1.2,9c-0.3-0.2-34.7-23.7-81.1-30.6l4.2-7.5
									C115.3,421.3,128.1,425.2,140.1,429.7z"/>
							</g>
							<g>
								<path class="st24" d="M136,442.1c23.4,8.7,38.3,18.4,39.2,19l-0.9,5.2c-0.3-0.2-37.7-24.5-84.1-31.3l2.3-4.4
									C108.8,433,124,437.6,136,442.1z"/>
							</g>
							<g>
								<path class="st24" d="M73.9,490.9c41,28.5,79.4,29.7,79.7,29.7l-3.1,4.4c-1.4,0-38.2-2.2-76.9-28.5L73.9,490.9z"/>
							</g>
						</g>
						<g>
							<path class="st31" d="M74,507.5c2.6,34,20.3,56.8,20.3,56.8s27.5-6.1,49.7-31C143.8,533.3,114.6,534.3,74,507.5z"/>
							<g>
								<polygon class="st27" points="90.2,517.1 90.2,517.1 90.2,517.1 								"/>
							</g>
						</g>
					</g>
				</g>
				<g>
					<path class="st31" d="M140.8,421c0,0,47.1-58,40.6-127.3C181.4,293.7,128.7,376.3,140.8,421z"/>
					<path class="st32" d="M181.4,293.7c0,0-52.7,82.7-40.6,127.3C140.8,421,156.3,330.6,181.4,293.7z"/>
				</g>
			</g>
		</g>
		<g>
			<path class="st31" d="M144.9,510.7c0,1.9,1.4,3.4,3.2,3.4c1.8,0,3.2-1.5,3.2-3.4c0-1.9-1.4-3.4-3.2-3.4
				C146.4,507.4,144.9,508.9,144.9,510.7z"/>
			<path class="st31" d="M159.7,472.3c0,1.9,1.4,3.4,3.2,3.4c1.8,0,3.2-1.5,3.2-3.4c0-1.9-1.4-3.4-3.2-3.4
				C161.1,468.9,159.7,470.4,159.7,472.3z"/>
			<path class="st31" d="M151.6,499.1c0,2.7,2.1,4.9,4.6,4.9c2.6,0,4.6-2.2,4.6-4.9c0-2.7-2.1-4.9-4.6-4.9
				C153.7,494.2,151.6,496.4,151.6,499.1z"/>
			<path class="st31" d="M156.2,486.3c0,2.7,2.1,4.9,4.6,4.9c2.6,0,4.6-2.2,4.6-4.9c0-2.7-2.1-4.9-4.6-4.9
				C158.3,481.4,156.2,483.6,156.2,486.3z"/>
		</g>
		<g>
			<path class="st31" d="M99,448c-0.2-1.8-1.7-3.2-3.5-3c-1.7,0.2-3,1.8-2.9,3.7c0.2,1.8,1.7,3.2,3.5,3
				C97.9,451.5,99.2,449.8,99,448z"/>
			<path class="st31" d="M87.8,487.8c-0.2-1.8-1.7-3.2-3.5-3c-1.7,0.2-3,1.8-2.9,3.7c0.2,1.8,1.7,3.2,3.5,3
				C86.7,491.2,88,489.6,87.8,487.8z"/>
			<path class="st31" d="M93.4,460.2c-0.2-2.7-2.5-4.7-5-4.4c-2.5,0.3-4.4,2.6-4.2,5.3c0.2,2.7,2.5,4.7,5,4.4
				C91.8,465.3,93.7,462.9,93.4,460.2z"/>
			<path class="st31" d="M90,473.4c-0.2-2.7-2.5-4.7-5-4.4c-2.5,0.3-4.4,2.6-4.2,5.3c0.2,2.7,2.5,4.7,5,4.4
				C88.4,478.5,90.2,476.1,90,473.4z"/>
		</g>
		<path class="st31" d="M132.8,421.7c0,0-13.2-6.8-27.2-5.9l28.9-48.6l8.2,0.9C142.8,368,128.8,377.5,132.8,421.7z"/>
		<path class="st31" d="M148.5,426.6c0,0,14.3,3.4,24.7,13.4l6.4-57l-6.9-4.8C172.7,378.2,178,394.9,148.5,426.6z"/>
		<g>
			<g>
				<path class="st28" d="M103.1,462.3c9-10.8,25.1-12.2,35.9-3.2c10.8,9,12.2,25.1,3.2,35.9c-9,10.8-25.1,12.2-35.9,3.2
					C95.5,489.2,94.1,473.1,103.1,462.3z"/>
				<path class="st29" d="M107.4,494.1c0.6-0.7,1.6-0.8,2.3-0.2c0.7,0.6,0.8,1.6,0.2,2.3c-0.6,0.7-1.6,0.8-2.3,0.2
					C106.9,495.8,106.8,494.8,107.4,494.1z"/>
				<path class="st29" d="M122.8,498.9c0.6-0.7,1.6-0.8,2.3-0.2c0.7,0.6,0.8,1.6,0.2,2.3c-0.6,0.7-1.6,0.8-2.3,0.2
					C122.3,500.7,122.2,499.6,122.8,498.9z"/>
				<path class="st29" d="M99.7,479.6c0.6-0.7,1.6-0.8,2.3-0.2c0.7,0.6,0.8,1.6,0.2,2.3c-0.6,0.7-1.6,0.8-2.3,0.2
					C99.2,481.3,99.1,480.3,99.7,479.6z"/>
				<path class="st29" d="M119.5,456.5c0.6-0.7,1.6-0.8,2.3-0.2c0.7,0.6,0.8,1.6,0.2,2.3c-0.6,0.7-1.6,0.8-2.3,0.2
					C119,458.2,118.9,457.2,119.5,456.5z"/>
				<path class="st29" d="M143.1,476.3c0.6-0.7,1.6-0.8,2.3-0.2c0.7,0.6,0.8,1.6,0.2,2.3c-0.6,0.7-1.6,0.8-2.3,0.2
					C142.6,478,142.6,477,143.1,476.3z"/>
				<path class="st29" d="M135.2,461c0.6-0.7,1.6-0.8,2.3-0.2c0.7,0.6,0.8,1.6,0.2,2.3c-0.6,0.7-1.6,0.8-2.3,0.2
					C134.7,462.8,134.6,461.8,135.2,461z"/>
				<path class="st29" d="M137.5,492c0.6-0.7,1.6-0.8,2.3-0.2c0.7,0.6,0.8,1.6,0.2,2.3c-0.6,0.7-1.6,0.8-2.3,0.2
					C137,493.8,136.9,492.7,137.5,492z"/>
				<path class="st29" d="M104.9,463.8c0.6-0.7,1.6-0.8,2.3-0.2c0.7,0.6,0.8,1.6,0.2,2.3c-0.6,0.7-1.6,0.8-2.3,0.2
					C104.4,465.5,104.3,464.5,104.9,463.8z"/>
			</g>
			<g>
				<path class="st31" d="M109.1,467.3c6.3-7.5,17.4-8.5,24.9-2.2c7.5,6.2,8.5,17.4,2.2,24.9c-6.3,7.5-17.4,8.5-24.9,2.2
					C103.9,485.9,102.9,474.8,109.1,467.3z"/>
				<path class="st30" d="M126.2,488.9c-0.1-0.9,0.7-1.8,1.7-1.9c1-0.1,1.9,0.6,2,1.5c0.1,0.9-0.7,1.8-1.7,1.9
					C127.2,490.5,126.3,489.8,126.2,488.9z"/>
				<path class="st32" d="M132.6,472.2l2.7-3.9c0,0-12.1-13.3-25.4,1l3.9,3.2C113.8,472.6,121.5,462.6,132.6,472.2z"/>
				
					<rect x="109.2" y="470.1" transform="matrix(0.6411 -0.7675 0.7675 0.6411 -323.0442 254.3943)" class="st32" width="2.5" height="5"/>
				<path class="st30" d="M114.9,488.4c0.6-2.2,3.2-3.4,5.8-2.7c2.6,0.7,4.2,3.1,3.6,5.4c-0.6,2.2-3.2,3.4-5.8,2.7
					C115.9,493,114.3,490.6,114.9,488.4z"/>
			</g>
		</g>
	</g>
	<g>
		<path class="st30" d="M231.4,620.3c0,0.5-0.5,0.9-1,0.8c-0.5-0.1-0.9-0.5-0.9-1c0.1-0.5,0.5-0.9,1-0.9
			C231.1,619.4,231.5,619.8,231.4,620.3z"/>
		<path class="st30" d="M258.6,592c-0.1,0.5-0.5,0.9-1,0.8c-0.5-0.1-0.9-0.5-0.9-1c0-0.5,0.5-0.9,1-0.8
			C258.3,591,258.7,591.5,258.6,592z"/>
		<path class="st30" d="M269.9,620.8c-0.1,1.3-1.2,2.2-2.4,2.1c-1.2-0.1-2.1-1.3-2-2.6c0.1-1.3,1.2-2.2,2.4-2.1
			C269.2,618.4,270.1,619.5,269.9,620.8z"/>
		<path class="st33" d="M263.8,587l-18-12.3c1-1.5,5.8,0.1,10.8,3.5C261.6,581.6,264.8,585.5,263.8,587z"/>
		<path class="st22" d="M263.8,587c-1,1.5-5.8-0.1-10.8-3.5c-5-3.4-8.2-7.3-7.2-8.8c1-1.5,5.8,0.1,10.8,3.5
			C261.6,581.6,264.8,585.5,263.8,587z"/>
		<path class="st30" d="M270.8,576.7L270.8,576.7c0.2-0.4,0.1-1-0.2-1.6c-0.2-0.5-0.6-1-1-1.6c-0.3-0.4-0.6-0.8-1-1.2
			c-0.5-0.5-1-1-1.6-1.5c-1-0.9-2.2-1.8-3.4-2.7c-4.8-3.3-9.5-4.9-10.7-3.6l0,0l-7,10.2c1-1.5,5.8,0.1,10.8,3.5
			c1.3,0.9,2.4,1.8,3.4,2.7c0.6,0.5,1.1,1,1.6,1.5c0.4,0.4,0.7,0.8,1,1.2c0.4,0.6,0.8,1.1,1,1.6c0.3,0.8,0.6,1.4,0.3,1.8l7.1-10.1
			c0,0,0,0,0,0c0,0-0.2,0-0.2,0L270.8,576.7L270.8,576.7z"/>
		<polygon class="st22" points="227.5,597.5 185.8,566.5 197.5,549 240.7,577.6 		"/>
		<path class="st30" d="M262,584.6c-0.8-1.1-2.1-2.5-3.9-3.9c-0.7-0.5-1.4-1.1-2.1-1.6c-4.5-3.1-8.7-4.5-9.6-3.3L227,604l16.1,11.1
			l19.4-28.3C262.9,586.3,262.6,585.5,262,584.6z"/>
		<path class="st22" d="M243.5,616.4c-0.8,1.2-5.5-0.6-10.5-4c-5-3.4-8.3-7.1-7.5-8.4c0.8-1.2,5.5,0.6,10.5,4
			C241,611.5,244.4,615.2,243.5,616.4z"/>
		<path class="st34" d="M244,618.9c-1,1.5-6.6-0.7-12.5-4.7c-5.9-4.1-9.9-8.5-8.9-10c1-1.5,6.6,0.7,12.5,4.7
			C241,613,245,617.5,244,618.9z"/>
		<path class="st22" d="M269.6,573.5l-6.9,10.1c-0.3-0.4-0.6-0.8-1-1.2l6.9-10.1C268.9,572.7,269.3,573.1,269.6,573.5z"/>
		<path class="st22" d="M261.4,583.5l-19.8,29.8c-0.3-0.4-0.6-0.8-1-1.2l19.8-29.8C260.8,582.7,261.1,583.1,261.4,583.5z"/>
		<path class="st22" d="M235.6,614.7c0.1-0.1,0-0.3,0-0.5c-0.1-0.2-0.2-0.3-0.3-0.5c-0.1-0.1-0.2-0.3-0.3-0.4
			c-0.1-0.2-0.3-0.3-0.5-0.5c-0.3-0.3-0.7-0.6-1.1-0.8c-1.5-1-3.4-1.5-3.4-1.1l0,0v0v0c0,0,0-0.8,0-0.8h-0.2l-2.3,3.8
			c0.3-0.5,1.9,0.2,3.5,1.2c0.4,0.3,0.8,0.7,1.1,1c0.2,0.2,0.4,0.4,0.5,0.5c0.1,0.1,0.2,0.3,0.3,0.4c0.1,0.2,0.2,0.4,0.3,0.5
			c0.1,0.2,0.1,0.6,0,0.7l2.3-3.2l0,0h0l0-0.2L235.6,614.7z"/>
		<path class="st30" d="M231.2,615.2c-8.9-6.1-21.2-3.9-27.3,5.1l32.4,22.2C242.4,633.6,240.1,621.3,231.2,615.2z"/>
		<path class="st22" d="M234.8,641.6l-2.5-1.7c5.8-8.5,4.8-19.4-2.1-25.2c0.4,0.2,0.9,0.5,1.3,0.8
			C239.5,620.9,241,632.6,234.8,641.6z"/>
		<path class="st22" d="M236.5,642.7c-1,1.4-9-2.3-17.9-8.4c-0.1-0.1-0.2-0.1-0.3-0.2c-0.3-0.2-0.7-0.5-1-0.7
			c-8.5-5.9-14.5-11.7-13.5-13.1c1-1.4,8.5,2.1,17.1,7.9c0.3,0.2,0.7,0.5,1,0.7c0.1,0.1,0.2,0.1,0.3,0.2
			C231.1,635.1,237.5,641.2,236.5,642.7z"/>
		<path class="st22" d="M236.3,643c-1,1.4-9-2.3-17.9-8.4c-0.1-0.1-0.2-0.1-0.3-0.2c-0.3-0.2-0.7-0.5-1-0.7
			c-8.5-5.9-14.5-11.7-13.5-13.1c1-1.4,8.5,2.1,17.1,7.9c0.3,0.2,0.7,0.5,1,0.7c0.1,0.1,0.2,0.1,0.3,0.2
			C230.9,635.5,237.2,641.6,236.3,643z"/>
		<path class="st30" d="M222.2,629l-4.1,5.9l-1.3-0.9l4.1-5.9c0.3,0.2,0.7,0.5,1,0.7C222.1,628.9,222.1,629,222.2,629z"/>
		<path class="st30" d="M219.1,635.9c-0.6,0.9-1.9,1.2-2.9,0.5c-0.9-0.6-1.2-1.9-0.5-2.9c0.6-0.9,1.9-1.2,2.9-0.5
			C219.5,633.7,219.7,635,219.1,635.9z"/>
		
			<rect x="232.8" y="588.5" transform="matrix(0.5654 -0.8248 0.8248 0.5654 -383.088 451.1024)" class="st34" width="7.6" height="1.1"/>
		<polygon class="st22" points="249.5,611.8 289.5,643.8 304,620.4 262.3,592.3 		"/>
		<polygon class="st34" points="249.5,611.8 289.5,643.8 299.8,627.1 255.3,603.1 		"/>
		<polygon class="st34" points="185.8,566.5 227.5,597.5 235.9,584.8 189.6,560.7 		"/>
		
			<rect x="249.8" y="600.2" transform="matrix(0.5653 -0.8249 0.8249 0.5653 -385.3583 470.3874)" class="st34" width="7.6" height="1.1"/>
		<g>
			<path class="st22" d="M250.2,580.2c0-0.9-0.7-1.7-1.7-1.7c-0.9,0-1.7,0.7-1.7,1.7c0,0.9,0.7,1.7,1.7,1.7
				C249.4,581.9,250.2,581.2,250.2,580.2z"/>
			<circle class="st22" cx="244.2" cy="586.1" r="2"/>
			<path class="st22" d="M242.8,592.1c0-1.5-1.2-2.7-2.7-2.7c-1.5,0-2.7,1.2-2.7,2.7c0,1.5,1.2,2.7,2.7,2.7
				C241.6,594.7,242.8,593.5,242.8,592.1z"/>
			<circle class="st22" cx="236.3" cy="597.4" r="1.5"/>
			<circle class="st22" cx="233.8" cy="601.4" r="1.5"/>
		</g>
	</g>
	<g>
		<polygon class="st35" points="664,279.7 668.2,283.9 638.6,281.8 635.5,274.3 		"/>
		<polygon class="st35" points="625.6,270 614.4,269.5 595.7,249 602.4,249.8 		"/>
		<path class="st36" d="M620.7,279.3c0,0-7.5,5.3-8.6,6.2c-1.2,2.8,12.1,10.1,14.9,7.5c0-0.9-0.2-10.6-0.2-10.6
			C626.7,281.1,621.7,278.6,620.7,279.3z"/>
		<path class="st37" d="M632.2,288.5c-4.7,4.3-20-3.7-19.4-9.8c1.6-4,14.5-36,17.2-42.9c4.3-7.9,30.2,4.7,26.4,13.3
			C652.3,255.7,634.4,284.9,632.2,288.5z"/>
		<path class="st35" d="M655.7,248.2c-1.6,2.6-8.1,1.9-14.7-1.4c-6.6-3.3-11-8.2-9.9-11c1.2-2.9,7.8-2.4,14.9,1.1
			C653,240.5,657.3,245.6,655.7,248.2z"/>
		<path class="st36" d="M653.4,245.8c-5.5,4.1-19.7-3.8-19.2-9.7c2.3-5.4-1.4,3.3,0.8-1.9c3.3-5.8,22.1,3.3,19.4,9.8
			C651.5,249.1,656.3,240.8,653.4,245.8z"/>
		<path class="st35" d="M653.8,243.5c-1.1,1.9-5.9,1.5-10.6-0.9c-4.8-2.4-8-6-7.1-8c0.9-2.1,5.7-1.8,10.7,0.8
			C651.8,237.8,655,241.5,653.8,243.5z"/>
		<path class="st36" d="M642.5,237.6c0,0,0.7-11.5,0.9-13.5c2-4.5,16.4,1.8,14.6,7.4c-1,0.8-10.3,8.8-10.3,8.8
			C646.5,241.1,642.4,239,642.5,237.6z"/>
		<path class="st35" d="M657.6,231c-0.9,1.6-4.6,1.4-8.3-0.5c-3.7-1.9-6.1-4.7-5.3-6.4c0.8-1.7,4.5-1.5,8.3,0.4
			C656.1,226.4,658.5,229.4,657.6,231z"/>
		<polygon class="st35" points="614.3,274.7 617,275.2 617,274.5 613.5,273.9 610.6,271.4 571.9,264 580,275.7 618.1,278 		"/>
		<polygon class="st35" points="639.2,285.2 635.4,284.5 633.4,282.3 632.8,282.6 634.4,284.3 628.5,283.2 652.1,309.2 670.1,311.9 
					"/>
	</g>
	<g>
		<g>
			<path class="st38" d="M457.7,113.3c-4.1-0.2-7.4-3.6-7.2-7.7c0.2-4.1,3.6-7.3,7.8-7.2c4.1,0.2,7.4,3.6,7.2,7.7
				C465.4,110.2,461.9,113.4,457.7,113.3z"/>
		</g>
		<g>
			<path class="st39" d="M527.3,123.4c-4.1-0.2-7.4-3.6-7.2-7.7c0.2-4.1,3.6-7.3,7.8-7.2c4.1,0.2,7.4,3.6,7.2,7.7
				C534.9,120.4,531.4,123.6,527.3,123.4z"/>
		</g>
		<g>
			<path class="st39" d="M382.8,66.5c-4.1-0.2-7.4-3.6-7.2-7.7c0.2-4.1,3.6-7.3,7.8-7.2c4.1,0.2,7.4,3.6,7.2,7.7
				C390.4,63.4,386.9,66.6,382.8,66.5z"/>
		</g>
		<g>
			<path class="st38" d="M582.3,52.4c-4.1-0.2-7.4-3.6-7.2-7.7c0.2-4.1,3.6-7.3,7.8-7.2c4.1,0.2,7.4,3.6,7.2,7.7
				C590,49.3,586.5,52.5,582.3,52.4z"/>
		</g>
		<g class="st40">
			<line class="st39" x1="567.1" y1="45.9" x2="398.1" y2="57.1"/>
			<path class="st39" d="M396.9,57.1c0-0.6,0.5-1.1,1.2-1.2l169-11.3c0.7,0,1.3,0.5,1.3,1.1c0,0.7-0.5,1.3-1.1,1.3l-169,11.3
				c-0.7,0-1.3-0.5-1.3-1.1C396.8,57.2,396.8,57.1,396.9,57.1z"/>
		</g>
		<g class="st40">
			<line class="st39" x1="572.7" y1="55" x2="534" y2="104.3"/>
			<path class="st39" d="M532.8,104.3c0-0.3,0.1-0.5,0.3-0.7l38.6-49.4c0.4-0.5,1.2-0.6,1.7-0.2c0.5,0.4,0.6,1.2,0.2,1.7L535,105.1
				c-0.4,0.5-1.2,0.6-1.7,0.2C533,105.1,532.8,104.7,532.8,104.3z"/>
		</g>
		<g class="st40">
			<line class="st39" x1="514.5" y1="114.2" x2="472.3" y2="107.9"/>
			<path class="st39" d="M471.1,107.9c0,0,0-0.1,0-0.1c0.1-0.7,0.7-1.1,1.4-1l42.2,6.3c0.7,0.1,1.1,0.7,1,1.4
				c-0.1,0.7-0.7,1.1-1.4,1l-42.2-6.3C471.5,109,471.1,108.5,471.1,107.9z"/>
		</g>
	</g>
</g>
</svg>
